<svg width="55" height="55" viewBox="0 0 55 55" fill="none" xmlns="http://www.w3.org/2000/svg">
<mask id="mask0" mask-type="alpha" maskUnits="userSpaceOnUse" x="0" y="0" width="55" height="55">
<circle cx="27.5" cy="27.5" r="27.5" fill="#C4C4C4"/>
</mask>
<g mask="url(#mask0)">
<path d="M24.8993 12.3642L26.7769 17.997C26.9351 18.4715 27.3791 18.7916 27.8793 18.7916C28.2203 18.7916 28.544 18.6419 28.7648 18.3821L33.8767 12.3681C34.7403 11.3522 33.9482 9.7988 32.6188 9.90107L26.2073 10.3943C25.2343 10.4691 24.5907 11.4384 24.8993 12.3642Z" fill="#B48C71"/>
<path d="M45.5861 3.52615L34.0096 15.8043C33.1073 16.7613 33.7857 18.3334 35.1009 18.3334H56.8509C58.1207 18.3334 58.816 16.8541 58.0059 15.8763L47.8326 3.59814C47.2575 2.90408 46.2045 2.87033 45.5861 3.52615Z" fill="#B48C71"/>
<path d="M14.4071 -0.587138L23.3869 7.39494C23.6736 7.64975 24.0469 7.78507 24.4303 7.77309L37.9453 7.35075C38.3032 7.33956 38.6454 7.20068 38.9098 6.95921L48.055 -1.39076C48.5566 -1.84872 48.4952 -2.65591 47.93 -3.03267C47.7583 -3.14716 47.5565 -3.20825 47.3501 -3.20825H15.4036C14.0243 -3.20825 13.3762 -1.50348 14.4071 -0.587138Z" fill="#B48C71"/>
<path d="M21.3051 30.9174L26.6076 21.8275C26.8764 21.3667 27.3697 21.0833 27.9032 21.0833H67.0046C68.1733 21.0833 68.893 22.3607 68.2876 23.3604L50.8077 52.2225C50.3513 52.9761 49.3469 53.1759 48.6368 52.6545L21.7129 32.8822C21.0944 32.428 20.9184 31.5803 21.3051 30.9174Z" fill="#B48C71"/>
<path d="M27.0058 40.3334H24.3541C24.0168 40.3334 23.6894 40.4471 23.4246 40.6561L8.16099 52.7063C7.32664 53.365 7.42328 54.6586 8.34625 55.186L21.9132 62.9385C22.262 63.1378 22.6761 63.1889 23.0628 63.0804L45.6321 56.7451C46.8336 56.4079 47.1218 54.8364 46.1183 54.0947L27.8974 40.6271C27.6393 40.4363 27.3268 40.3334 27.0058 40.3334Z" fill="#B48C71"/>
<path d="M18.5291 34.375H15.3384C14.3245 34.375 13.6027 35.3599 13.908 36.3267L15.4693 41.2709C15.7613 42.1953 16.8402 42.6042 17.6715 42.1055L21.4449 39.8414C22.2238 39.3741 22.4119 38.3273 21.8445 37.6181L19.7004 34.938C19.4157 34.5821 18.9848 34.375 18.5291 34.375Z" fill="#B48C71"/>
<path d="M-2.72175 33.9167H9.01696C9.65545 33.9167 10.224 34.3209 10.4337 34.9239L13.3873 43.4156C13.6031 44.0358 13.3903 44.7243 12.8622 45.1146L4.70442 51.1442C3.93519 51.7128 2.83748 51.4258 2.44495 50.5535L-4.08963 36.0322C-4.53631 35.0396 -3.81023 33.9167 -2.72175 33.9167Z" fill="#B48C71"/>
<path d="M7.61036 -2.23157L19.5653 7.54972C20.4512 8.27459 20.2314 9.68474 19.1669 10.1056L2.09905 16.8534C1.92347 16.9228 1.73636 16.9584 1.54756 16.9584H-6.11195C-7.35798 16.9584 -8.06076 15.5272 -7.29887 14.5412L5.47358 -1.98781C5.99012 -2.65627 6.95654 -2.76652 7.61036 -2.23157Z" fill="#B48C71"/>
<path d="M18.299 30.8334L24.3971 19.4503C24.6193 19.0355 24.634 18.5406 24.4368 18.1134L22.5364 13.9957C22.2274 13.3262 21.4775 12.9805 20.7677 13.1805L-9.3365 21.6605C-10.0344 21.8571 -10.4918 22.5248 -10.423 23.2466L-9.75439 30.2673C-9.68108 31.0371 -9.03449 31.625 -8.26115 31.625H16.9768C17.5298 31.625 18.0379 31.3208 18.299 30.8334Z" fill="#B48C71"/>
</g>
</svg>
