<svg width="15" height="15" viewBox="0 0 15 15" fill="none" xmlns="http://www.w3.org/2000/svg">
<path fill-rule="evenodd" clip-rule="evenodd" d="M1.21728 2.62977C1.43448 2.26944 2.63194 0.961387 3.48524 1.00088C3.74053 1.02273 3.9662 1.17646 4.14955 1.35556H4.15026C4.57057 1.76737 5.77648 3.32152 5.84418 3.64871C6.01132 4.45116 5.05434 4.91374 5.34701 5.72255C6.09312 7.54817 7.37872 8.83366 9.20522 9.579C10.0134 9.87234 10.476 8.91616 11.2785 9.08257C11.6058 9.15097 13.1608 10.3561 13.5719 10.777V10.777C13.7503 10.9597 13.9055 11.186 13.9266 11.4413C13.9584 12.3404 12.5691 13.5539 12.2983 13.709C11.6594 14.1667 10.8258 14.1582 9.80959 13.6858C6.97393 12.5061 2.44223 8.06011 1.24055 5.11753C0.780753 4.10705 0.749723 3.26793 1.21728 2.62977Z" stroke="white" stroke-linecap="round" stroke-linejoin="round"/>
<path d="M9.16553 1.17175C11.7075 1.45397 13.7146 3.45898 14.0002 6.00026" stroke="white" stroke-linecap="round" stroke-linejoin="round"/>
<path d="M9.16553 3.60437C10.3809 3.84126 11.3305 4.7909 11.5674 6.00626" stroke="white" stroke-linecap="round" stroke-linejoin="round"/>
</svg>
