<svg width="14" height="14" viewBox="0 0 14 14" fill="none" xmlns="http://www.w3.org/2000/svg">
<g clip-path="url(#clip0)">
<path d="M13.6963 6.37211C13.9719 6.10355 14.0692 5.7094 13.9503 5.343C13.8312 4.9766 13.5209 4.71504 13.1396 4.65954L9.74976 4.16699C9.60539 4.14596 9.48064 4.05541 9.41616 3.9245L7.90066 0.853131C7.7305 0.508036 7.38513 0.293579 7.00022 0.293579C6.6156 0.293579 6.27023 0.508036 6.10006 0.853131L4.58428 3.92478C4.51981 4.05569 4.39478 4.14624 4.2504 4.16727L0.860575 4.65982C0.479598 4.71504 0.168985 4.97688 0.0498417 5.34328C-0.0690209 5.70968 0.0282558 6.10383 0.303827 6.37239L2.75649 8.7631C2.86106 8.86514 2.90899 9.01204 2.88432 9.15557L2.30571 12.5314C2.25441 12.8285 2.33234 13.1176 2.52465 13.3455C2.82349 13.7007 3.3452 13.8089 3.76234 13.5897L6.7939 11.9957C6.92061 11.9292 7.08012 11.9298 7.20655 11.9957L10.2384 13.5897C10.3858 13.6673 10.5431 13.7066 10.7054 13.7066C11.0017 13.7066 11.2826 13.5748 11.4758 13.3455C11.6684 13.1176 11.746 12.828 11.6947 12.5314L11.1158 9.15557C11.0912 9.01176 11.1391 8.86514 11.2437 8.7631L13.6963 6.37211Z" fill="#B48C71"/>
</g>
<defs>
<clipPath id="clip0">
<rect width="14" height="14" fill="white"/>
</clipPath>
</defs>
</svg>
