<svg width="15" height="15" viewBox="0 0 15 15" fill="none" xmlns="http://www.w3.org/2000/svg">
<path fill-rule="evenodd" clip-rule="evenodd" d="M1.21704 2.62977C1.43424 2.26944 2.63169 0.961387 3.485 1.00088C3.74029 1.02273 3.96595 1.17646 4.14931 1.35556H4.15002C4.57032 1.76737 5.77624 3.32152 5.84394 3.64871C6.01107 4.45116 5.0541 4.91374 5.34676 5.72255C6.09288 7.54817 7.37848 8.83366 9.20498 9.579C10.0132 9.87234 10.4758 8.91616 11.2783 9.08257C11.6055 9.15097 13.1605 10.3561 13.5717 10.777V10.777C13.7501 10.9597 13.9052 11.186 13.9264 11.4413C13.9581 12.3404 12.5688 13.5539 12.298 13.709C11.6591 14.1667 10.8256 14.1582 9.80935 13.6858C6.97369 12.5061 2.44199 8.06011 1.24031 5.11753C0.780508 4.10705 0.749479 3.26793 1.21704 2.62977Z" stroke="#555C6C" stroke-linecap="round" stroke-linejoin="round"/>
<path d="M9.16528 1.17169C11.7073 1.4539 13.7143 3.45891 14 6.0002" stroke="#555C6C" stroke-linecap="round" stroke-linejoin="round"/>
<path d="M9.16528 3.60443C10.3806 3.84132 11.3303 4.79096 11.5672 6.00632" stroke="#555C6C" stroke-linecap="round" stroke-linejoin="round"/>
</svg>
