<svg width="55" height="55" viewBox="0 0 55 55" fill="none" xmlns="http://www.w3.org/2000/svg">
<mask id="mask0" mask-type="alpha" maskUnits="userSpaceOnUse" x="0" y="0" width="55" height="55">
<circle cx="27.5" cy="27.5" r="27.5" fill="#C4C4C4"/>
</mask>
<g mask="url(#mask0)">
<path d="M24.8993 12.3642L26.7769 17.9971C26.9351 18.4716 27.3791 18.7917 27.8793 18.7917C28.2203 18.7917 28.544 18.642 28.7648 18.3822L33.8767 12.3682C34.7403 11.3522 33.9482 9.79886 32.6188 9.90113L26.2073 10.3943C25.2343 10.4692 24.5907 11.4385 24.8993 12.3642Z" fill="#341B07"/>
<path d="M45.5861 3.52609L34.0095 15.8043C33.1073 16.7612 33.7857 18.3333 35.1009 18.3333H56.8508C58.1206 18.3333 58.816 16.854 58.0058 15.8763L47.8325 3.59808C47.2574 2.90402 46.2044 2.87027 45.5861 3.52609Z" fill="#341B07"/>
<path d="M14.4071 -0.587138L23.387 7.39494C23.6736 7.64975 24.047 7.78507 24.4304 7.77309L37.9453 7.35075C38.3033 7.33956 38.6454 7.20068 38.9099 6.95921L48.0551 -1.39076C48.5567 -1.84872 48.4952 -2.65591 47.9301 -3.03267C47.7583 -3.14716 47.5566 -3.20825 47.3502 -3.20825H15.4037C14.0244 -3.20825 13.3762 -1.50348 14.4071 -0.587138Z" fill="#341B07"/>
<path d="M21.3051 30.9174L26.6076 21.8274C26.8764 21.3666 27.3697 21.0833 27.9032 21.0833H67.0046C68.1733 21.0833 68.893 22.3606 68.2876 23.3603L50.8077 52.2225C50.3513 52.976 49.3469 53.1759 48.6368 52.6544L21.7129 32.8822C21.0944 32.428 20.9184 31.5802 21.3051 30.9174Z" fill="#341B07"/>
<path d="M27.0059 40.3334H24.3542C24.0169 40.3334 23.6894 40.4471 23.4247 40.6561L8.16105 52.7063C7.3267 53.365 7.42334 54.6586 8.34631 55.186L21.9133 62.9385C22.262 63.1378 22.6762 63.1889 23.0629 63.0804L45.6321 56.7451C46.8336 56.4079 47.1219 54.8364 46.1183 54.0947L27.8975 40.6271C27.6394 40.4363 27.3269 40.3334 27.0059 40.3334Z" fill="#341B07"/>
<path d="M18.5291 34.375H15.3384C14.3246 34.375 13.6028 35.3599 13.9081 36.3267L15.4694 41.2709C15.7613 42.1953 16.8403 42.6042 17.6715 42.1055L21.445 39.8414C22.2238 39.3741 22.4119 38.3273 21.8446 37.6181L19.7004 34.938C19.4158 34.5821 18.9848 34.375 18.5291 34.375Z" fill="#341B07"/>
<path d="M-2.72175 33.9167H9.01696C9.65545 33.9167 10.224 34.3209 10.4337 34.924L13.3873 43.4156C13.6031 44.0359 13.3903 44.7243 12.8622 45.1147L4.70442 51.1443C3.93519 51.7129 2.83748 51.4259 2.44495 50.5536L-4.08963 36.0323C-4.53631 35.0397 -3.81023 33.9167 -2.72175 33.9167Z" fill="#341B07"/>
<path d="M7.61042 -2.23157L19.5653 7.54972C20.4513 8.27459 20.2315 9.68474 19.167 10.1056L2.09911 16.8534C1.92353 16.9228 1.73643 16.9584 1.54762 16.9584H-6.11188C-7.35792 16.9584 -8.06069 15.5272 -7.29881 14.5412L5.47364 -1.98781C5.99018 -2.65627 6.9566 -2.76652 7.61042 -2.23157Z" fill="#341B07"/>
<path d="M18.299 30.8334L24.3971 19.4503C24.6193 19.0355 24.634 18.5406 24.4368 18.1134L22.5364 13.9957C22.2274 13.3262 21.4775 12.9805 20.7677 13.1805L-9.3365 21.6605C-10.0344 21.8571 -10.4918 22.5248 -10.423 23.2466L-9.75439 30.2673C-9.68108 31.0371 -9.03449 31.625 -8.26115 31.625H16.9768C17.5298 31.625 18.0379 31.3208 18.299 30.8334Z" fill="#341B07"/>
</g>
</svg>
