<svg width="27" height="27" viewBox="0 0 27 27" fill="none" xmlns="http://www.w3.org/2000/svg">
<g clip-path="url(#clip0)">
<path d="M6.18367 5.35418C10.1699 1.74838 16.1355 1.69324 20.1768 4.98478L16.9735 5.10607C16.56 5.12261 16.2402 5.46445 16.2568 5.87796C16.2733 6.28044 16.6041 6.59471 17.0011 6.59471C17.0121 6.59471 17.0176 6.59471 17.0286 6.59471L21.9466 6.41276C22.3491 6.39622 22.6634 6.07093 22.6634 5.66845V5.61331C22.6634 5.60229 22.6634 5.59677 22.6634 5.58574V5.58023L22.4815 0.717363C22.4649 0.303854 22.1176 -0.0159266 21.7096 0.000613752C21.2961 0.0171541 20.9763 0.358988 20.9928 0.772498L21.1086 3.82144C19.1072 2.18394 16.6427 1.23563 14.0073 1.1033C10.7433 0.937901 7.60615 2.05713 5.18574 4.25149C1.85561 7.26735 0.444165 11.8545 1.50275 16.2212C1.58545 16.563 1.88869 16.7891 2.22501 16.7891C2.28566 16.7891 2.34079 16.7836 2.40144 16.767C2.79841 16.6678 3.04652 16.2653 2.94727 15.8683C2.02101 12.031 3.25603 8.00064 6.18367 5.35418Z" fill="#AE8858"/>
<path d="M25.4974 10.7794C25.3981 10.3824 24.9956 10.1343 24.5987 10.2336C24.2017 10.3328 23.9536 10.7353 24.0528 11.1322C24.9846 14.9696 23.7441 18.9999 20.8164 21.6464C18.7599 23.5044 16.1796 24.4197 13.6103 24.4197C11.1569 24.4197 8.70888 23.5871 6.73506 21.9441L9.97697 21.6519C10.385 21.6133 10.6882 21.2549 10.6496 20.8414C10.611 20.4279 10.2526 20.1302 9.83913 20.1688L4.93767 20.6099C4.52968 20.6485 4.22644 21.0068 4.26503 21.4203L4.70611 26.3218C4.73919 26.7077 5.06448 27 5.44491 27C5.46696 27 5.48902 27 5.51107 26.9944C5.91907 26.9559 6.22231 26.5975 6.18371 26.184L5.91907 23.2012C7.92045 24.8221 10.3739 25.7649 12.9928 25.8973C13.2023 25.9083 13.4119 25.9138 13.6159 25.9138C16.6538 25.9138 19.5428 24.8001 21.8144 22.7491C25.1445 19.7332 26.5559 15.1516 25.4974 10.7794Z" fill="#AE8858"/>
</g>
<defs>
<clipPath id="clip0">
<rect width="27" height="27" fill="white"/>
</clipPath>
</defs>
</svg>
