<svg width="18" height="18" viewBox="0 0 18 18" fill="none" xmlns="http://www.w3.org/2000/svg">
<path d="M0 9.52734H3.72656V13.2188H0V9.52734Z" fill="#727F88"/>
<path d="M0 4.78125H3.72656V8.47266H0V4.78125Z" fill="#727F88"/>
<path d="M9.52734 9.52734H13.2188V13.2188H9.52734V9.52734Z" fill="#727F88"/>
<path d="M14.2734 9.52734H18V13.2188H14.2734V9.52734Z" fill="#727F88"/>
<path d="M14.2734 4.78125H18V8.47266H14.2734V4.78125Z" fill="#727F88"/>
<path d="M9.52734 4.78125H13.2188V8.47266H9.52734V4.78125Z" fill="#727F88"/>
<path d="M4.78125 4.78125H8.47266V8.47266H4.78125V4.78125Z" fill="#727F88"/>
<path d="M4.78125 9.52734H8.47266V13.2188H4.78125V9.52734Z" fill="#727F88"/>
<path d="M9.52734 14.2734H13.2188V18H9.52734V14.2734Z" fill="#727F88"/>
<path d="M17.4727 0H14.2734V3.72656H18V0.527344C18 0.235863 17.7641 0 17.4727 0Z" fill="#727F88"/>
<path d="M14.2734 18H17.4727C17.7641 18 18 17.7641 18 17.4727V14.2734H14.2734V18Z" fill="#727F88"/>
<path d="M0.527344 18H3.72656V14.2734H0V17.4727C0 17.7641 0.235863 18 0.527344 18Z" fill="#727F88"/>
<path d="M4.78125 14.2734H8.47266V18H4.78125V14.2734Z" fill="#727F88"/>
<path d="M9.52734 0H13.2188V3.72656H9.52734V0Z" fill="#727F88"/>
<path d="M3.72656 0H0.527344C0.235863 0 0 0.235863 0 0.527344V3.72656H3.72656V0Z" fill="#727F88"/>
<path d="M4.78125 0H8.47266V3.72656H4.78125V0Z" fill="#727F88"/>
</svg>
