<svg width="21" height="21" viewBox="0 0 21 21" fill="none" xmlns="http://www.w3.org/2000/svg">
<path fill-rule="evenodd" clip-rule="evenodd" d="M1.60329 3.48089C1.91588 2.96233 3.63918 1.07987 4.8672 1.1367C5.23459 1.16816 5.55936 1.38938 5.82323 1.64714H5.82425C6.42912 2.23979 8.1646 4.47641 8.26203 4.94728C8.50256 6.10213 7.12534 6.76784 7.54652 7.93181C8.62028 10.5591 10.4704 12.4091 13.099 13.4818C14.2621 13.9039 14.9279 12.5279 16.0828 12.7673C16.5537 12.8658 18.7916 14.6001 19.3833 15.2059V15.2059C19.64 15.4688 19.8633 15.7945 19.8937 16.1619C19.9394 17.4557 17.9401 19.2022 17.5504 19.4255C16.6309 20.0841 15.4313 20.0719 13.9688 19.392C9.88789 17.6942 3.36617 11.2959 1.63679 7.06111C0.975073 5.6069 0.930418 4.39929 1.60329 3.48089Z" stroke="#555C6C" stroke-width="1.5" stroke-linecap="round" stroke-linejoin="round"/>
<path d="M13.041 1.38251C16.6992 1.78865 19.5877 4.67413 19.9988 8.33137" stroke="#555C6C" stroke-width="1.5" stroke-linecap="round" stroke-linejoin="round"/>
<path d="M13.041 4.88354C14.7901 5.22447 16.1567 6.59112 16.4977 8.34019" stroke="#555C6C" stroke-width="1.5" stroke-linecap="round" stroke-linejoin="round"/>
</svg>
