<svg width="32" height="32" viewBox="0 0 32 32" fill="none" xmlns="http://www.w3.org/2000/svg">
<mask id="mask0" mask-type="alpha" maskUnits="userSpaceOnUse" x="0" y="0" width="32" height="32">
<circle cx="16" cy="16" r="16" fill="#C4C4C4"/>
</mask>
<g mask="url(#mask0)">
<path d="M14.7403 7.95582L15.5787 10.4709C15.6707 10.747 15.9291 10.9332 16.2201 10.9332C16.4185 10.9332 16.6068 10.8461 16.7353 10.695L18.7344 8.3431C19.598 7.32715 18.8059 5.77378 17.4765 5.87604L16.0483 5.9859C15.0753 6.06075 14.4317 7.03005 14.7403 7.95582Z" fill="#341B07"/>
<path d="M26.0365 2.56784L20.7849 8.13769C19.8827 9.09461 20.5611 10.6667 21.8763 10.6667H31.7429C33.0126 10.6667 33.708 9.18744 32.8979 8.20968L28.2829 2.63983C27.7078 1.94576 26.6548 1.91202 26.0365 2.56784Z" fill="#341B07"/>
<path d="M9.61477 0.754477L13.4196 4.13655C13.7063 4.39136 14.0796 4.52668 14.463 4.5147L21.8446 4.28403C22.2026 4.27284 22.5447 4.13396 22.8092 3.89249L27.9586 -0.809186C28.2505 -1.07564 28.2147 -1.54528 27.8859 -1.76448C27.786 -1.83109 27.6686 -1.86664 27.5485 -1.86664H10.6113C9.23204 -1.86664 8.58389 -0.161864 9.61477 0.754477Z" fill="#341B07"/>
<path d="M12.6801 17.5008L15.2992 13.0109C15.568 12.55 16.0614 12.2667 16.5949 12.2667H37.8712C39.0399 12.2667 39.7597 13.544 39.1543 14.5437L29.916 29.7975C29.4597 30.5511 28.4552 30.751 27.7451 30.2295L13.0879 19.4656C12.4694 19.0114 12.2934 18.1636 12.6801 17.5008Z" fill="#341B07"/>
<path d="M15.5049 23.4667H14.3865C14.0492 23.4667 13.7218 23.5804 13.457 23.7894L5.47673 30.0896C4.64237 30.7483 4.73902 32.0419 5.66199 32.5693L12.5206 36.4885C12.8694 36.6878 13.2835 36.7389 13.6702 36.6303L25.3145 33.3618C26.516 33.0245 26.8042 31.4531 25.8007 30.7113L16.3965 23.7604C16.1384 23.5696 15.8259 23.4667 15.5049 23.4667Z" fill="#341B07"/>
<path d="M10.4782 20H9.77912C8.76528 20 8.04345 20.9849 8.34875 21.9517L8.76008 23.2543C9.052 24.1787 10.1309 24.5876 10.9622 24.0888L11.8607 23.5497C12.6395 23.0824 12.8276 22.0357 12.2602 21.3264L11.6495 20.563C11.3648 20.2071 10.9338 20 10.4782 20Z" fill="#341B07"/>
<path d="M-0.613715 19.7333H4.8C5.43848 19.7333 6.00699 20.1375 6.21674 20.7406L7.63703 24.8239C7.85277 25.4441 7.63997 26.1326 7.11187 26.5229L3.36245 29.2942C2.59323 29.8628 1.49551 29.5758 1.10298 28.7035L-1.9816 21.8489C-2.42827 20.8563 -1.7022 19.7333 -0.613715 19.7333Z" fill="#341B07"/>
<path d="M4.9264 -0.889963L10.5563 3.71633C11.4423 4.44121 11.2225 5.85135 10.1579 6.27221L1.33175 9.76164C1.15617 9.83105 0.969068 9.8667 0.780265 9.8667H-2.27924C-3.52527 9.8667 -4.22805 8.43549 -3.46617 7.44953L2.78961 -0.646197C3.30616 -1.31466 4.27257 -1.42491 4.9264 -0.889963Z" fill="#341B07"/>
<path d="M10.8246 17.6083L14.0477 11.5919C14.2699 11.1772 14.2846 10.6822 14.0874 10.255L13.337 8.62899C13.028 7.95946 12.2781 7.61383 11.5683 7.81377L-4.92756 12.4605C-5.62546 12.6571 -6.08284 13.3247 -6.0141 14.0465L-5.72879 17.0422C-5.65547 17.8121 -5.00889 18.4 -4.23555 18.4H9.50241C10.0554 18.4 10.5635 18.0958 10.8246 17.6083Z" fill="#341B07"/>
</g>
</svg>
