<svg width="142" height="24" viewBox="0 0 142 24" fill="none" xmlns="http://www.w3.org/2000/svg">
<path d="M0 21.42L0.42 17.52L1.44 17.58C1.44 18.68 2.09 19.57 3.39 20.25C4.71 20.91 6.2 21.24 7.86 21.24C9.54 21.24 10.8 20.99 11.64 20.49C12.48 19.97 12.9 19.32 12.9 18.54C12.9 17.22 12.2 16.04 10.8 15C10.22 14.58 9.61 14.21 8.97 13.89C7.51 13.13 6.59 12.65 6.21 12.45C5.85 12.23 5.44 12.01 4.98 11.79C4.52 11.57 4.09 11.34 3.69 11.1C3.31 10.84 2.9 10.53 2.46 10.17C1.46 9.37 0.96 8.48 0.96 7.5C0.96 6.5 1.13 5.63 1.47 4.89C1.83 4.15 2.27 3.57 2.79 3.15C3.33 2.73 3.96 2.38 4.68 2.1C5.9 1.66 7.26 1.44 8.76 1.44C10.28 1.44 11.74 1.82 13.14 2.58L12.78 6.06H11.76C11.76 4.18 10.18 3.24 7.02 3.24C5.56 3.24 4.46 3.47 3.72 3.93C3 4.39 2.64 5.02 2.64 5.82C2.64 7.1 4.72 8.64 8.88 10.44C11.62 11.62 13.37 12.93 14.13 14.37C14.51 15.09 14.7 15.88 14.7 16.74C14.7 18.82 13.86 20.43 12.18 21.57C10.52 22.71 8.51 23.28 6.15 23.28C3.79 23.28 1.74 22.66 0 21.42Z" fill="white"/>
<path d="M31.9741 22.86H26.7541V22.02H26.9341C27.1341 22.02 27.3041 21.92 27.4441 21.72C27.5841 21.5 27.6541 21.22 27.6541 20.88V13.26C27.6541 11.42 26.8541 10.5 25.2541 10.5C24.1141 10.5 23.1041 11.1 22.2241 12.3C21.3641 13.5 20.9341 14.4 20.9341 15V20.7C20.9341 21 20.9541 21.23 20.9941 21.39C21.0941 21.81 21.5141 22.02 22.2541 22.02H22.8541V22.86H16.7941V22.02H17.2141C17.7541 22.02 18.1041 21.93 18.2641 21.75C18.4441 21.55 18.5341 21.26 18.5341 20.88V3.06C18.5341 2.68 18.4041 2.41 18.1441 2.25C17.8841 2.07 17.4341 1.98 16.7941 1.98V1.14C17.2141 1.14 17.8341 1.03 18.6541 0.81C19.4741 0.59 20.0541 0.36 20.3941 0.12L20.9341 0V12.42C21.9741 9.78 23.8541 8.46 26.5741 8.46C27.2941 8.46 27.9041 8.62 28.4041 8.94C28.9241 9.26 29.2941 9.67 29.5141 10.17C29.9141 11.01 30.1141 11.86 30.1141 12.72V20.82C30.1141 21.1 30.1341 21.31 30.1741 21.45C30.2541 21.83 30.6541 22.02 31.3741 22.02H31.9741V22.86Z" fill="white"/>
<path d="M45.7179 19.2L46.2579 19.74C44.9779 22.1 42.6779 23.28 39.3579 23.28C37.8179 23.28 36.4979 22.6 35.3979 21.24C34.3179 19.88 33.7779 18.36 33.7779 16.68C33.7779 14.42 34.5079 12.49 35.9679 10.89C37.4479 9.27 39.2379 8.46 41.3379 8.46C42.3379 8.46 43.2179 8.75 43.9779 9.33C45.3379 10.39 46.0179 11.76 46.0179 13.44C46.0179 13.68 45.9679 13.97 45.8679 14.31C45.7879 14.65 45.7179 14.82 45.6579 14.82L35.9979 15.12C35.9979 16.68 36.4879 18.12 37.4679 19.44C38.4479 20.76 39.6379 21.42 41.0379 21.42C42.0379 21.42 42.9579 21.22 43.7979 20.82C44.6579 20.4 45.2979 19.86 45.7179 19.2ZM36.2979 13.92L43.3179 13.62C43.3579 13.62 43.3779 13.44 43.3779 13.08C43.3779 12.04 43.0679 11.3 42.4479 10.86C41.8479 10.42 41.0079 10.2 39.9279 10.2C38.8679 10.2 37.9979 10.53 37.3179 11.19C36.6379 11.85 36.2979 12.76 36.2979 13.92Z" fill="white"/>
<path d="M55.0641 22.86H48.5841V22.02H49.0641C49.6041 22.02 49.9441 21.93 50.0841 21.75C50.2441 21.57 50.3241 21.28 50.3241 20.88V11.88C50.3241 11.5 50.1941 11.23 49.9341 11.07C49.6941 10.89 49.2441 10.8 48.5841 10.8V9.96C48.9841 9.96 49.5841 9.82 50.3841 9.54C51.2041 9.24 51.8241 8.96 52.2441 8.7L52.7841 8.58V12.3C53.5041 10.72 54.3241 9.68 55.2441 9.18C56.1641 8.66 57.5241 8.4 59.3241 8.4L59.1441 11.88H58.2441C58.2441 11.6 58.1341 11.33 57.9141 11.07C57.7141 10.81 57.3841 10.68 56.9241 10.68C55.9241 10.68 54.9841 11.22 54.1041 12.3C53.2241 13.38 52.7841 14.42 52.7841 15.42V20.7C52.7841 21.02 52.7941 21.25 52.8141 21.39C52.8541 21.53 52.9741 21.67 53.1741 21.81C53.3741 21.95 53.6841 22.02 54.1041 22.02H55.0641V22.86Z" fill="white"/>
<path d="M66.4744 22.86H60.4744V22.02H60.8944C61.3344 22.02 61.6544 21.93 61.8544 21.75C62.0544 21.55 62.1544 21.22 62.1544 20.76V3.06C62.1544 2.68 62.0244 2.41 61.7644 2.25C61.5044 2.07 61.0544 1.98 60.4144 1.98V1.14C60.8144 1.14 61.4244 1.03 62.2444 0.81C63.0844 0.59 63.6944 0.36 64.0744 0.12L64.6144 0V20.7C64.6144 21.02 64.6244 21.25 64.6444 21.39C64.6844 21.53 64.8044 21.67 65.0044 21.81C65.2044 21.95 65.5144 22.02 65.9344 22.02H66.4744V22.86Z" fill="white"/>
<path d="M68.584 21.42L69.004 17.52L70.024 17.58C70.024 18.68 70.674 19.57 71.974 20.25C73.294 20.91 74.784 21.24 76.444 21.24C78.124 21.24 79.384 20.99 80.224 20.49C81.064 19.97 81.484 19.32 81.484 18.54C81.484 17.22 80.784 16.04 79.384 15C78.804 14.58 78.194 14.21 77.554 13.89C76.094 13.13 75.174 12.65 74.794 12.45C74.434 12.23 74.024 12.01 73.564 11.79C73.104 11.57 72.674 11.34 72.274 11.1C71.894 10.84 71.484 10.53 71.044 10.17C70.044 9.37 69.544 8.48 69.544 7.5C69.544 6.5 69.714 5.63 70.054 4.89C70.414 4.15 70.854 3.57 71.374 3.15C71.914 2.73 72.544 2.38 73.264 2.1C74.484 1.66 75.844 1.44 77.344 1.44C78.864 1.44 80.324 1.82 81.724 2.58L81.364 6.06H80.344C80.344 4.18 78.764 3.24 75.604 3.24C74.144 3.24 73.044 3.47 72.304 3.93C71.584 4.39 71.224 5.02 71.224 5.82C71.224 7.1 73.304 8.64 77.464 10.44C80.204 11.62 81.954 12.93 82.714 14.37C83.094 15.09 83.284 15.88 83.284 16.74C83.284 18.82 82.444 20.43 80.764 21.57C79.104 22.71 77.094 23.28 74.734 23.28C72.374 23.28 70.324 22.66 68.584 21.42Z" fill="white"/>
<path d="M93.9581 21L94.1981 21.72C92.6981 22.76 91.0581 23.28 89.2781 23.28C88.6381 23.28 88.0881 23.05 87.6281 22.59C87.1681 22.13 86.9381 21.52 86.9381 20.76V10.14H85.1981V8.88H85.8581C86.5181 8.88 87.1281 8.48 87.6881 7.68C88.2681 6.88 88.5581 6.14 88.5581 5.46H89.3381V8.88H93.4181V10.14H90.4781C89.7181 10.14 89.3381 10.5 89.3381 11.22V19.8C89.3381 21.12 89.8181 21.78 90.7781 21.78C91.8581 21.78 92.9181 21.52 93.9581 21Z" fill="white"/>
<path d="M101.335 23.28C99.5748 23.28 98.1048 22.62 96.9248 21.3C95.7448 19.98 95.1548 18.44 95.1548 16.68C95.1548 14.44 95.9948 12.51 97.6748 10.89C99.3748 9.27 101.165 8.46 103.045 8.46C104.925 8.46 106.435 9.13 107.575 10.47C108.735 11.79 109.315 13.32 109.315 15.06C109.315 17.24 108.505 19.16 106.885 20.82C105.285 22.46 103.435 23.28 101.335 23.28ZM97.2548 15.06C97.2548 16.92 97.8148 18.47 98.9348 19.71C100.075 20.93 101.345 21.54 102.745 21.54C104.165 21.54 105.275 21.01 106.075 19.95C106.875 18.89 107.275 17.8 107.275 16.68C107.275 14.98 106.745 13.5 105.685 12.24C104.645 10.96 103.375 10.32 101.875 10.32C100.375 10.32 99.2248 10.83 98.4248 11.85C97.6448 12.85 97.2548 13.92 97.2548 15.06Z" fill="white"/>
<path d="M126.664 22.86H121.504V22.02H121.624C121.844 22.02 122.024 21.91 122.164 21.69C122.324 21.47 122.404 21.2 122.404 20.88V13.26C122.404 12.36 122.184 11.68 121.744 11.22C121.324 10.74 120.724 10.5 119.944 10.5C118.824 10.5 117.834 11.1 116.974 12.3C116.114 13.5 115.684 14.4 115.684 15V20.7C115.684 21.02 115.694 21.25 115.714 21.39C115.754 21.53 115.874 21.67 116.074 21.81C116.274 21.95 116.584 22.02 117.004 22.02H117.544V22.86H111.484V22.02H111.964C112.504 22.02 112.844 21.93 112.984 21.75C113.144 21.57 113.224 21.28 113.224 20.88V11.88C113.224 11.5 113.094 11.23 112.834 11.07C112.594 10.89 112.144 10.8 111.484 10.8V9.96C111.884 9.96 112.484 9.82 113.284 9.54C114.104 9.24 114.724 8.96 115.144 8.7L115.684 8.58V12.42C116.144 11.16 116.854 10.19 117.814 9.51C118.774 8.81 119.944 8.46 121.324 8.46C122.044 8.46 122.654 8.62 123.154 8.94C123.654 9.26 124.014 9.67 124.234 10.17C124.614 11.03 124.804 11.88 124.804 12.72V20.82C124.804 21.1 124.824 21.31 124.864 21.45C124.964 21.83 125.384 22.02 126.124 22.02H126.664V22.86Z" fill="white"/>
<path d="M140.523 19.2L141.063 19.74C139.783 22.1 137.483 23.28 134.163 23.28C132.623 23.28 131.303 22.6 130.203 21.24C129.123 19.88 128.583 18.36 128.583 16.68C128.583 14.42 129.313 12.49 130.773 10.89C132.253 9.27 134.043 8.46 136.143 8.46C137.143 8.46 138.023 8.75 138.783 9.33C140.143 10.39 140.823 11.76 140.823 13.44C140.823 13.68 140.773 13.97 140.673 14.31C140.593 14.65 140.523 14.82 140.463 14.82L130.803 15.12C130.803 16.68 131.293 18.12 132.273 19.44C133.253 20.76 134.443 21.42 135.843 21.42C136.843 21.42 137.763 21.22 138.603 20.82C139.463 20.4 140.103 19.86 140.523 19.2ZM131.103 13.92L138.123 13.62C138.163 13.62 138.183 13.44 138.183 13.08C138.183 12.04 137.873 11.3 137.253 10.86C136.653 10.42 135.813 10.2 134.733 10.2C133.673 10.2 132.803 10.53 132.123 11.19C131.443 11.85 131.103 12.76 131.103 13.92Z" fill="white"/>
</svg>
