<svg width="33" height="33" viewBox="0 0 33 33" fill="none" xmlns="http://www.w3.org/2000/svg">
<g clip-path="url(#clip0)">
<path d="M29.2188 33H3.78128C1.69541 33 3.43323e-05 31.3046 3.43323e-05 29.2188V3.78125C3.43323e-05 1.69538 1.69541 0 3.78128 0H29.2188C31.3047 0 33 1.69538 33 3.78125V29.2188C33 31.3046 31.3047 33 29.2188 33ZM3.78128 2.0625C2.83391 2.0625 2.06253 2.83388 2.06253 3.78125V29.2188C2.06253 30.1661 2.83391 30.9375 3.78128 30.9375H29.2188C30.1662 30.9375 30.9375 30.1661 30.9375 29.2188V3.78125C30.9375 2.83388 30.1662 2.0625 29.2188 2.0625H3.78128Z" fill="url(#paint0_linear)"/>
<path d="M16.5 36C15.9308 36 15.4688 35.538 15.4688 34.9688V4.03126C15.4688 3.46201 15.9308 3.00001 16.5 3.00001C17.0693 3.00001 17.5313 3.46201 17.5313 4.03126V34.9688C17.5313 35.538 17.0693 36 16.5 36Z" fill="url(#paint1_linear)"/>
<path d="M27.4687 17.5312H-3.46877C-4.03802 17.5312 -4.50002 17.0693 -4.50002 16.5C-4.50002 15.9307 -4.03802 15.4687 -3.46877 15.4687H27.4687C28.038 15.4687 28.5 15.9307 28.5 16.5C28.5 17.0693 28.038 17.5312 27.4687 17.5312Z" fill="url(#paint2_linear)"/>
<path d="M8.25002 12.3751C7.68077 12.3751 7.21877 11.9131 7.21877 11.3438V6.53132C7.21877 5.96207 7.68077 5.50007 8.25002 5.50007C8.81927 5.50007 9.28127 5.96207 9.28127 6.53132V11.3438C9.28127 11.9131 8.81927 12.3751 8.25002 12.3751Z" fill="url(#paint3_linear)"/>
<path d="M10.6563 9.96867H5.84382C5.27457 9.96867 4.81257 9.50667 4.81257 8.93742C4.81257 8.36817 5.27457 7.90617 5.84382 7.90617H10.6563C11.2256 7.90617 11.6876 8.36817 11.6876 8.93742C11.6876 9.50667 11.2256 9.96867 10.6563 9.96867Z" fill="url(#paint4_linear)"/>
<path d="M6.53122 27.4997C6.26722 27.4997 6.00322 27.3993 5.80247 27.1972C5.3996 26.7943 5.3996 26.1412 5.80247 25.7383L9.23997 22.3008C9.64285 21.898 10.296 21.898 10.6988 22.3008C11.1017 22.7037 11.1017 23.3568 10.6988 23.7597L7.26135 27.1972C7.05922 27.3993 6.79522 27.4997 6.53122 27.4997Z" fill="url(#paint5_linear)"/>
<path d="M9.96872 27.4997C9.70472 27.4997 9.44072 27.3993 9.23997 27.1972L5.80247 23.7597C5.3996 23.3568 5.3996 22.7037 5.80247 22.3008C6.20535 21.898 6.85847 21.898 7.26135 22.3008L10.6988 25.7383C11.1017 26.1412 11.1017 26.7943 10.6988 27.1972C10.4967 27.3993 10.2327 27.4997 9.96872 27.4997Z" fill="url(#paint6_linear)"/>
<path d="M27.8438 9.62507H21.6563C21.087 9.62507 20.625 9.16307 20.625 8.59382C20.625 8.02457 21.087 7.56257 21.6563 7.56257H27.8438C28.413 7.56257 28.875 8.02457 28.875 8.59382C28.875 9.16307 28.413 9.62507 27.8438 9.62507Z" fill="url(#paint7_linear)"/>
<path d="M27.8438 27.4999H21.6563C21.087 27.4999 20.625 27.0379 20.625 26.4687C20.625 25.8994 21.087 25.4374 21.6563 25.4374H27.8438C28.413 25.4374 28.875 25.8994 28.875 26.4687C28.875 27.0379 28.413 27.4999 27.8438 27.4999Z" fill="url(#paint8_linear)"/>
<path d="M27.8438 23.3749H21.6563C21.087 23.3749 20.625 22.9129 20.625 22.3437C20.625 21.7744 21.087 21.3124 21.6563 21.3124H27.8438C28.413 21.3124 28.875 21.7744 28.875 22.3437C28.875 22.9129 28.413 23.3749 27.8438 23.3749Z" fill="url(#paint9_linear)"/>
</g>
<defs>
<linearGradient id="paint0_linear" x1="-0.658296" y1="0.857143" x2="16.6776" y2="41.0603" gradientUnits="userSpaceOnUse">
<stop stop-color="#B48C71"/>
</linearGradient>
<linearGradient id="paint1_linear" x1="-0.658296" y1="0.857143" x2="16.6776" y2="41.0603" gradientUnits="userSpaceOnUse">
<stop stop-color="#B48C71"/>
</linearGradient>
<linearGradient id="paint2_linear" x1="-0.658296" y1="0.857143" x2="16.6776" y2="41.0603" gradientUnits="userSpaceOnUse">
<stop stop-color="#B48C71"/>
</linearGradient>
<linearGradient id="paint3_linear" x1="-0.658296" y1="0.857143" x2="16.6776" y2="41.0603" gradientUnits="userSpaceOnUse">
<stop stop-color="#B48C71"/>
</linearGradient>
<linearGradient id="paint4_linear" x1="-0.658296" y1="0.857143" x2="16.6776" y2="41.0603" gradientUnits="userSpaceOnUse">
<stop stop-color="#B48C71"/>
</linearGradient>
<linearGradient id="paint5_linear" x1="-0.658296" y1="0.857143" x2="16.6776" y2="41.0603" gradientUnits="userSpaceOnUse">
<stop stop-color="#B48C71"/>
</linearGradient>
<linearGradient id="paint6_linear" x1="-0.658296" y1="0.857143" x2="16.6776" y2="41.0603" gradientUnits="userSpaceOnUse">
<stop stop-color="#B48C71"/>
</linearGradient>
<linearGradient id="paint7_linear" x1="-0.658296" y1="0.857143" x2="16.6776" y2="41.0603" gradientUnits="userSpaceOnUse">
<stop stop-color="#B48C71"/>
</linearGradient>
<linearGradient id="paint8_linear" x1="-0.658296" y1="0.857143" x2="16.6776" y2="41.0603" gradientUnits="userSpaceOnUse">
<stop stop-color="#B48C71"/>
</linearGradient>
<linearGradient id="paint9_linear" x1="-0.658296" y1="0.857143" x2="16.6776" y2="41.0603" gradientUnits="userSpaceOnUse">
<stop stop-color="#B48C71"/>
</linearGradient>
<clipPath id="clip0">
<rect width="33" height="33" fill="white"/>
</clipPath>
</defs>
</svg>
