<svg width="30" height="31" viewBox="0 0 30 31" fill="none" xmlns="http://www.w3.org/2000/svg">
<path d="M29.5603 24.9681H27.2542V8.61082H28.1337C28.3765 8.61082 28.5735 8.41383 28.5735 8.17108V5.73779H29.5603C29.8036 5.73779 30 5.5408 30 5.29805V1.83873C30 1.59598 29.8036 1.39899 29.5603 1.39899H11.063C10.8202 1.39899 10.6233 1.59598 10.6233 1.83873C10.6233 2.08149 10.8202 2.27848 11.063 2.27848H29.1205V4.8583C28.3244 4.8583 6.77452 4.8583 5.74679 4.8583C5.50403 4.8583 5.30704 5.0553 5.30704 5.29805C5.30704 5.5408 5.50403 5.73779 5.74679 5.73779C6.87167 5.73779 26.9451 5.73779 27.694 5.73779V7.73133C26.4023 7.73133 3.35537 7.73133 2.30602 7.73133V5.73779H6.63486C6.8782 5.73779 7.07461 5.5408 7.07461 5.29805C7.07461 5.0553 6.8782 4.8583 6.63486 4.8583C6.02461 4.8583 2.03689 4.8583 1.42652 4.8583H0.879492V2.27848H11.9511C12.1939 2.27848 12.3909 2.08149 12.3909 1.83873C12.3909 1.59598 12.1939 1.39899 11.9511 1.39899H0.439746C0.196406 1.39899 0 1.59598 0 1.83873V5.29805C0 5.5408 0.196406 5.73779 0.439746 5.73779H1.42652V8.17108C1.42652 8.41383 1.62352 8.61082 1.86627 8.61082C1.94344 8.61082 2.52393 8.61082 2.74576 8.61082V24.9681H0.439746C0.196406 24.9681 0 25.1651 0 25.4079V28.8672C0 29.11 0.196406 29.307 0.439746 29.307H6.63486C6.8782 29.307 7.07461 29.11 7.07461 28.8672C7.07461 28.6245 6.8782 28.4275 6.63486 28.4275H0.879492V25.8476C4.1274 25.8476 6.21293 25.8476 11.9511 25.8476C12.1939 25.8476 12.3909 25.6506 12.3909 25.4079C12.3909 25.1651 12.1939 24.9681 11.9511 24.9681H8.11066V12.392H21.8893V24.9681H11.063C10.8202 24.9681 10.6233 25.1651 10.6233 25.4079C10.6233 25.6506 10.8202 25.8476 11.063 25.8476C11.8634 25.8476 28.5639 25.8476 29.1205 25.8476V28.4275H1.33502C1.09227 28.4275 0.895278 28.6245 0.895278 28.8672C0.895278 29.11 1.09227 29.307 1.33502 29.307H29.5603C29.8036 29.307 30 29.11 30 28.8672V25.4079C30 25.1651 29.8036 24.9681 29.5603 24.9681ZM26.3747 24.9681H22.7688V11.9522C22.7688 11.7095 22.5718 11.5125 22.3291 11.5125H7.67092C7.42816 11.5125 7.23117 11.7095 7.23117 11.9522V24.9681H3.62525V8.61082H26.3747V24.9681Z" fill="#B48C71"/>
</svg>
