<svg width="30" height="28" viewBox="0 0 30 28" fill="none" xmlns="http://www.w3.org/2000/svg">
<path d="M0.5 22.0588C0.5 21.8476 0.671185 21.6765 0.882353 21.6765H29.1176C29.3288 21.6765 29.5 21.8476 29.5 22.0588V26.4706C29.5 26.6817 29.3288 26.8529 29.1176 26.8529H0.882354C0.671185 26.8529 0.5 26.6817 0.5 26.4706V22.0588Z" stroke="#B48C71
	"/>
<path d="M1.38232 13.2353C1.38232 13.0242 1.55351 12.853 1.76468 12.853H28.2353C28.4464 12.853 28.6176 13.0242 28.6176 13.2353V17.6471C28.6176 17.8583 28.4464 18.0294 28.2353 18.0294H1.76468C1.55351 18.0294 1.38232 17.8583 1.38232 17.6471V13.2353Z" stroke="#B48C71
	"/>
<path d="M2.26471 4.41177C2.26471 4.2006 2.43589 4.02942 2.64706 4.02942H27.3529C27.5641 4.02942 27.7353 4.2006 27.7353 4.41177V8.82354C27.7353 9.0347 27.5641 9.20589 27.3529 9.20589H2.64706C2.43589 9.20589 2.26471 9.0347 2.26471 8.82354V4.41177Z" stroke="#B48C71
	"/>
<path d="M0.609902 21.5588L1.29225 18.147H28.7077L29.3901 21.5588H0.609902Z" stroke="#B48C71"/>
<path d="M1.48522 12.7353L2.12744 9.32355H27.8725L28.5147 12.7353H1.48522Z" stroke="#B48C71"/>
<path d="M2.36067 3.91176L2.96275 0.5H27.0373L27.6393 3.91176H2.36067Z" stroke="#B48C71"/>
</svg>
