<svg width="30" height="30" viewBox="0 0 30 30" fill="none" xmlns="http://www.w3.org/2000/svg">
<path d="M29.5455 9.42546H0.454545C0.203636 9.42546 0 9.22182 0 8.97092V5.85182C0 5.60091 0.203636 5.39728 0.454545 5.39728H29.5455C29.7964 5.39728 30 5.60091 30 5.85182V8.97183C30 9.22273 29.7964 9.42546 29.5455 9.42546ZM0.909091 8.51637H29.0909V6.30637H0.909091V8.51637Z" fill="#AE8858"/>
<path d="M2.85089 24.6027H1.51635C1.38271 24.6027 1.25453 24.5436 1.16816 24.44C1.0818 24.3364 1.04544 24.2009 1.06907 24.0691L3.73816 8.89181C3.77635 8.67545 3.96453 8.51636 4.18544 8.51636H7.29998C7.44271 8.51636 7.57817 8.58363 7.66362 8.69818C7.74907 8.81272 7.77635 8.9609 7.73544 9.09818L3.28635 24.2764C3.22998 24.47 3.0518 24.6027 2.85089 24.6027ZM2.05816 23.6936H2.51089L6.69362 9.42545H4.56726L2.05816 23.6936Z" fill="#AE8858"/>
<path d="M27.7009 24.6027H26.3655C26.1636 24.6027 25.9864 24.47 25.93 24.2764L21.4809 9.09909C21.44 8.96182 21.4673 8.81364 21.5527 8.69909C21.6391 8.58455 21.7736 8.51727 21.9164 8.51727H25.0309C25.2518 8.51727 25.44 8.67636 25.4782 8.89273L28.1482 24.07C28.1709 24.2027 28.1345 24.3382 28.0491 24.4409C27.9636 24.5436 27.8345 24.6027 27.7009 24.6027ZM26.7055 23.6936H27.1591L24.6491 9.42545H22.5236L26.7055 23.6936Z" fill="#AE8858"/>
<path d="M22.79 12.4055H6.42635C6.17544 12.4055 5.9718 12.2019 5.9718 11.9509C5.9718 11.7 6.17544 11.4964 6.42635 11.4964H22.79C23.0409 11.4964 23.2445 11.7 23.2445 11.9509C23.2445 12.2019 23.0418 12.4055 22.79 12.4055Z" fill="#555C6C"/>
</svg>
