<svg width="30" height="30" viewBox="0 0 30 30" fill="none" xmlns="http://www.w3.org/2000/svg">
<path d="M28.619 26.9729H26.7666V0.451807C26.7666 0.180723 26.5859 0 26.3148 0H3.72447C3.45338 0 3.27266 0.180723 3.27266 0.451807V26.9729H1.42025C1.14917 26.9729 0.968445 27.1536 0.968445 27.4247V29.5482C0.968445 29.8193 1.14917 30 1.42025 30H28.5739C28.8449 30 29.0257 29.8193 29.0257 29.5482V27.4247C29.0709 27.1988 28.8449 26.9729 28.619 26.9729ZM4.17628 0.903614H25.863V26.9729H24.6883V2.48494C24.6883 2.21386 24.5076 2.03313 24.2365 2.03313H5.80278C5.5317 2.03313 5.35098 2.21386 5.35098 2.48494V26.9729H4.17628V0.903614ZM15.4715 18.6596V11.25H23.7847V18.6596H15.4715ZM23.7847 19.5633V26.9729H15.4715V19.5633H23.7847ZM15.4715 10.3464V2.93675H23.7847V10.3464H15.4715ZM6.25459 18.6596V11.25H14.5678V18.6596H6.25459ZM14.5678 19.5633V26.9729H6.25459V19.5633H14.5678ZM6.25459 10.3464V2.93675H14.5678V10.3464H6.25459ZM1.87206 29.0964V27.8765H5.80278H24.2365H28.1672V29.0964H1.87206Z" fill="#B48C71"/>
</svg>
