<svg width="56" height="76" viewBox="0 0 56 76" fill="none" xmlns="http://www.w3.org/2000/svg">
<path d="M55.5043 43.548L53.2654 35.1277C53.2647 35.1249 53.2635 35.1203 53.2615 35.1139C53.1106 34.5873 52.6911 34.1783 52.1612 34.0388C52.1399 34.0332 52.1244 34.0293 52.1159 34.0277L36.562 30.5435C41.3954 27.6011 44.4598 22.3073 44.4598 16.4705C44.4598 7.42603 37.1069 0.0374062 28.0689 0.000148438C28.0459 0 28.0228 0 27.9995 0C23.6278 0 19.5092 1.7048 16.3965 4.80477C13.2646 7.92374 11.5398 12.0668 11.5399 16.4705C11.5399 22.309 14.6037 27.6015 19.4374 30.5435L3.86242 34.0324C3.86108 34.0327 3.85277 34.0349 3.83882 34.0385C3.3086 34.1783 2.88778 34.5862 2.7383 35.1138C2.73652 35.1202 2.73518 35.1249 2.73444 35.1277L0.495559 43.548C0.346379 44.1085 0.534894 44.7218 1.01984 45.1035C1.19455 45.2409 1.40236 45.3303 1.61864 45.3811L2.69125 45.6327V69.179C2.69125 69.8738 3.17322 70.4756 3.85114 70.6275L27.6752 75.9642C27.7821 75.9881 27.8907 76.0001 27.9997 76.0001C28.1086 76.0001 28.2173 75.9881 28.3242 75.9642L52.1483 70.6275C52.8262 70.4756 53.3081 69.8737 53.3081 69.179V45.6327L54.3807 45.3811C54.5972 45.3303 54.805 45.2409 54.9795 45.1035C55.4649 44.7218 55.6535 44.1085 55.5043 43.548ZM28 39.299L10.9668 35.4834L23.6879 32.6338C23.8673 32.7937 24.025 32.9767 24.1549 33.1785L26.7518 37.2137C27.0251 37.6383 27.4952 37.8948 28 37.8948C28.5047 37.8948 28.9749 37.6381 29.2482 37.2137L31.8447 33.1792C31.9743 32.9778 32.1326 32.7946 32.3139 32.6341L45.0332 35.4834L28 39.299ZM3.75762 42.8334L5.24393 37.2439L25.986 41.8903L23.7752 47.5278L3.75762 42.8334ZM50.7562 37.2437L52.2425 42.8333L32.225 47.5275L30.0141 41.89L50.7562 37.2437ZM14.5087 16.4705C14.5087 12.862 15.923 9.46601 18.4914 6.90828C21.0438 4.36644 24.4185 2.96875 28 2.96875C28.0188 2.96875 28.038 2.96875 28.057 2.9689C35.4646 2.99948 41.4913 9.05617 41.4913 16.4705C41.4913 22.2637 37.8104 27.4041 32.3318 29.2615C31.0977 29.6799 30.038 30.5008 29.3482 31.5727L28 33.6676L26.6513 31.5718C25.9606 30.4986 24.906 29.6796 23.6816 29.2659C18.195 27.4123 14.5087 22.2701 14.5087 16.4705ZM50.3397 67.9903L29.4844 72.6619V56.2508C29.4844 55.431 28.8197 54.7665 28 54.7665C27.1803 54.7665 26.5156 55.431 26.5156 56.2508V72.6619L5.66029 67.9903V46.3288L24.3489 50.7113C24.4624 50.7379 24.5761 50.7508 24.6884 50.7508C25.2871 50.7508 25.8427 50.3865 26.0697 49.8081L28 44.8859L29.9303 49.8081C30.1571 50.3865 30.7127 50.7508 31.3116 50.7508C31.4238 50.7508 31.5376 50.738 31.6511 50.7113L50.3397 46.3288V67.9903Z" fill="#B48C71"/>
<path d="M35.4429 16.7189C35.4429 12.6127 32.1041 9.27197 27.9999 9.27197C23.8961 9.27197 20.5571 12.6127 20.5571 16.7189C20.5571 20.8252 23.8959 24.1659 27.9999 24.1659C32.1039 24.1659 35.4429 20.8252 35.4429 16.7189ZM23.5259 16.7189C23.5259 14.2497 25.5329 12.2407 27.9999 12.2407C30.467 12.2407 32.4741 14.2497 32.4741 16.7189C32.4741 19.1882 30.467 21.1971 27.9999 21.1971C25.5331 21.1971 23.5259 19.1882 23.5259 16.7189Z" fill="#B48C71"/>
</svg>
