<svg width="76" height="76" viewBox="0 0 76 76" fill="none" xmlns="http://www.w3.org/2000/svg">
<g clip-path="url(#clip0)">
<path d="M65.5043 43.548L63.2654 35.1277C63.2647 35.1249 63.2635 35.1203 63.2615 35.1139C63.1106 34.5873 62.6911 34.1783 62.1612 34.0388C62.1399 34.0332 62.1244 34.0293 62.1159 34.0277L46.562 30.5435C51.3954 27.6011 54.4598 22.3073 54.4598 16.4705C54.4598 7.42603 47.1069 0.0374062 38.0689 0.000148438C38.0459 0 38.0228 0 37.9995 0C33.6278 0 29.5092 1.7048 26.3965 4.80477C23.2646 7.92374 21.5398 12.0668 21.5399 16.4705C21.5399 22.309 24.6037 27.6015 29.4374 30.5435L13.8624 34.0324C13.8611 34.0327 13.8528 34.0349 13.8388 34.0385C13.3086 34.1783 12.8878 34.5862 12.7383 35.1138C12.7365 35.1202 12.7352 35.1249 12.7344 35.1277L10.4956 43.548C10.3464 44.1085 10.5349 44.7218 11.0198 45.1035C11.1946 45.2409 11.4024 45.3303 11.6186 45.3811L12.6912 45.6327V69.179C12.6912 69.8738 13.1732 70.4756 13.8511 70.6275L37.6752 75.9642C37.7821 75.9881 37.8907 76.0001 37.9997 76.0001C38.1086 76.0001 38.2173 75.9881 38.3242 75.9642L62.1483 70.6275C62.8262 70.4756 63.3081 69.8737 63.3081 69.179V45.6327L64.3807 45.3811C64.5972 45.3303 64.805 45.2409 64.9795 45.1035C65.4649 44.7218 65.6535 44.1085 65.5043 43.548ZM38 39.299L20.9668 35.4834L33.6879 32.6338C33.8673 32.7937 34.025 32.9767 34.1549 33.1785L36.7518 37.2137C37.0251 37.6383 37.4952 37.8948 38 37.8948C38.5047 37.8948 38.9749 37.6381 39.2482 37.2137L41.8447 33.1792C41.9743 32.9778 42.1326 32.7946 42.3139 32.6341L55.0332 35.4834L38 39.299ZM13.7576 42.8334L15.2439 37.2439L35.986 41.8903L33.7752 47.5278L13.7576 42.8334ZM60.7562 37.2437L62.2425 42.8333L42.225 47.5275L40.0141 41.89L60.7562 37.2437ZM24.5087 16.4705C24.5087 12.862 25.923 9.46601 28.4914 6.90828C31.0438 4.36644 34.4185 2.96875 38 2.96875C38.0188 2.96875 38.038 2.96875 38.057 2.9689C45.4646 2.99948 51.4913 9.05617 51.4913 16.4705C51.4913 22.2637 47.8104 27.4041 42.3318 29.2615C41.0977 29.6799 40.038 30.5008 39.3482 31.5727L38 33.6676L36.6513 31.5718C35.9606 30.4986 34.906 29.6796 33.6816 29.2659C28.195 27.4123 24.5087 22.2701 24.5087 16.4705ZM60.3397 67.9903L39.4844 72.6619V56.2508C39.4844 55.431 38.8197 54.7665 38 54.7665C37.1803 54.7665 36.5156 55.431 36.5156 56.2508V72.6619L15.6603 67.9903V46.3288L34.3489 50.7113C34.4624 50.7379 34.5761 50.7508 34.6884 50.7508C35.2871 50.7508 35.8427 50.3865 36.0697 49.8081L38 44.8859L39.9303 49.8081C40.1571 50.3865 40.7127 50.7508 41.3116 50.7508C41.4238 50.7508 41.5376 50.738 41.6511 50.7113L60.3397 46.3288V67.9903Z" fill="white"/>
<path d="M45.4429 16.7189C45.4429 12.6127 42.1041 9.27197 38 9.27197C33.8961 9.27197 30.5572 12.6127 30.5572 16.7189C30.5572 20.8252 33.896 24.1659 38 24.1659C42.104 24.1659 45.4429 20.8252 45.4429 16.7189ZM33.5259 16.7189C33.5259 14.2497 35.533 12.2407 38 12.2407C40.467 12.2407 42.4742 14.2497 42.4742 16.7189C42.4742 19.1882 40.467 21.1971 38 21.1971C35.5331 21.1971 33.5259 19.1882 33.5259 16.7189Z" fill="white"/>
</g>
<defs>
<clipPath id="clip0">
<rect width="76" height="76" fill="white"/>
</clipPath>
</defs>
</svg>
