<svg width="97" height="97" viewBox="0 0 97 97" fill="none" xmlns="http://www.w3.org/2000/svg">
<path d="M69.6248 34.8791L47.9324 12.7002C47.7147 12.4776 47.4257 12.3387 47.1159 12.3078C46.8061 12.2769 46.4953 12.356 46.2379 12.5312L27.5768 25.2352C27.3476 25.3913 27.1731 25.6154 27.078 25.8758C26.9828 26.1363 26.9717 26.4201 27.0463 26.6872L33.759 50.7386L28.9583 65.3235C28.8809 65.5595 28.8714 65.8126 28.9309 66.0537C28.9904 66.2949 29.1165 66.5145 29.2947 66.6875L47.4822 84.3203C47.7296 84.5602 48.0607 84.6945 48.4053 84.6947C48.4496 84.6946 48.4938 84.6924 48.5379 84.6878C48.7298 84.6684 48.9153 84.6074 49.0812 84.509C49.2472 84.4105 49.3897 84.2771 49.4988 84.118L69.7703 54.5549C69.9221 54.3342 70.0032 54.0726 70.0029 53.8047V35.8067C70.0029 35.46 69.8672 35.127 69.6248 34.8791ZM47.5785 16.1316L67.1096 36.1007L62.1406 47.7528L41.8926 33.9667L47.5785 16.1316ZM39.6055 32.4102L30.68 26.334L44.5541 16.8871L39.6055 32.4102ZM61.0842 50.243L48.4333 79.9227L36.5523 50.7189L41.0522 36.6024L61.0842 50.243ZM63.319 51.7586L66.8307 54.1488L54.858 71.6133L63.319 51.7586ZM64.38 49.2715L67.3513 42.2996V51.2971L64.38 49.2715ZM30.5754 29.4714L38.7651 35.0466L35.2284 46.1425L30.5754 29.4714ZM35.2739 54.6163L44.7996 78.0327L31.7372 65.3659L35.2739 54.6163Z" fill="white"/>
</svg>
