<svg width="45" height="73" viewBox="0 0 45 73" fill="none" xmlns="http://www.w3.org/2000/svg">
<path d="M43.6247 22.8791L21.9324 0.700207C21.7147 0.477622 21.4256 0.338715 21.1158 0.307818C20.806 0.276922 20.4952 0.356004 20.2379 0.531214L1.57675 13.2352C1.34755 13.3913 1.17308 13.6154 1.07792 13.8758C0.982758 14.1363 0.971691 14.4201 1.04628 14.6872L7.75899 38.7386L2.95824 53.3235C2.88086 53.5595 2.87138 53.8126 2.93087 54.0537C2.99036 54.2949 3.11644 54.5145 3.29471 54.6875L21.4822 72.3203C21.7296 72.5602 22.0606 72.6945 22.4052 72.6947C22.4495 72.6946 22.4938 72.6924 22.5379 72.6878C22.7298 72.6684 22.9152 72.6074 23.0812 72.509C23.2472 72.4105 23.3897 72.2771 23.4988 72.118L43.7702 42.5549C43.922 42.3342 44.0032 42.0726 44.0029 41.8047V23.8067C44.0029 23.46 43.8671 23.127 43.6247 22.8791ZM21.5785 4.13158L41.1096 24.1007L36.1406 35.7528L15.8926 21.9667L21.5785 4.13158ZM13.6055 20.4102L4.67999 14.334L18.554 4.88712L13.6055 20.4102ZM35.0842 38.243L22.4333 67.9227L10.5523 38.7189L15.0522 24.6024L35.0842 38.243ZM37.319 39.7586L40.8307 42.1488L28.858 59.6133L37.319 39.7586ZM38.3799 37.2715L41.3513 30.2996V39.2971L38.3799 37.2715ZM4.57542 17.4714L12.7651 23.0466L9.22838 34.1425L4.57542 17.4714ZM9.27385 42.6163L18.7996 66.0327L5.73714 53.3659L9.27385 42.6163Z" fill="#B48C71"/>
</svg>
