<svg width="81" height="81" viewBox="0 0 81 81" fill="none" xmlns="http://www.w3.org/2000/svg">
<path d="M79.7344 60.0942H1.26562C0.565734 60.0942 0 59.5285 0 58.8286C0 58.1287 0.565734 57.563 1.26562 57.563H79.7344C80.4343 57.563 81 58.1287 81 58.8286C81 59.5285 80.4343 60.0942 79.7344 60.0942Z" fill="#B48C71"/>
<path d="M63.2762 55.0774H3.79559C3.0957 55.0774 2.52997 54.5116 2.52997 53.8117V39.8975C2.52997 39.1976 3.0957 38.6318 3.79559 38.6318H63.2762C63.9761 38.6318 64.5418 39.1976 64.5418 39.8975V53.8105C64.5418 54.5104 63.9761 55.0774 63.2762 55.0774ZM5.06122 52.5461H62.0105V41.1656H5.06122V52.5461Z" fill="#B48C71"/>
<path d="M63.2762 41.1632H3.79562C3.28431 41.1632 2.82109 40.8556 2.62618 40.3823C2.43001 39.9089 2.53885 39.3647 2.90082 39.0027L16.8278 25.072C17.0657 24.8341 17.3859 24.7012 17.7226 24.7012H77.2031C77.7144 24.7012 78.1777 25.0087 78.3726 25.4821C78.5687 25.9554 78.4599 26.4996 78.0979 26.8616L64.171 40.7923C63.9343 41.0303 63.6129 41.1632 63.2762 41.1632ZM6.85084 38.6319H62.7522L74.1479 27.2312H18.2465L6.85084 38.6319Z" fill="#B48C71"/>
<path d="M63.2762 55.0774C62.9522 55.0774 62.6282 54.9534 62.3814 54.7066C61.8865 54.2117 61.8865 53.4118 62.3814 52.917L76.3096 38.99C76.8057 38.4952 77.6031 38.4952 78.0992 38.99C78.5953 39.4849 78.5953 40.2848 78.0992 40.7796L64.171 54.7066C63.9242 54.9534 63.6002 55.0774 63.2762 55.0774Z" fill="#B48C71"/>
<path d="M77.2044 41.1505C76.5045 41.1505 75.9388 40.5847 75.9388 39.8848V25.968C75.9388 25.2681 76.5045 24.7024 77.2044 24.7024C77.9056 24.7024 78.47 25.2681 78.47 25.968V39.8848C78.47 40.5822 77.9056 41.1505 77.2044 41.1505Z" fill="#B48C71"/>
<path d="M17.7225 41.1631C17.0226 41.1631 16.4569 40.5974 16.4569 39.8975V25.968C16.4569 25.2681 17.0226 24.7024 17.7225 24.7024C18.4224 24.7024 18.9882 25.2681 18.9882 25.968V39.9C18.9882 40.5986 18.4224 41.1631 17.7225 41.1631Z" fill="#B48C71"/>
<path d="M63.2762 79.099H3.79562C3.28431 79.099 2.82109 78.7902 2.62618 78.3181C2.43001 77.8435 2.53885 77.2993 2.90082 76.9386L16.8278 63.0066C17.0657 62.7674 17.3859 62.6357 17.7226 62.6357H77.2031C77.7144 62.6357 78.1777 62.942 78.3726 63.4166C78.5687 63.8887 78.4599 64.4329 78.0979 64.7962L64.171 78.7282C63.9343 78.9661 63.6129 79.099 63.2762 79.099ZM6.85084 76.5677H62.7522L74.1479 65.167H18.2465L6.85084 76.5677Z" fill="#B48C71"/>
<path d="M17.7225 79.0939C17.0226 79.0939 16.4569 78.5282 16.4569 77.8283V63.9014C16.4569 63.2015 17.0226 62.6357 17.7225 62.6357C18.4224 62.6357 18.9882 63.2015 18.9882 63.9014V77.8283C18.9882 78.5282 18.4224 79.0939 17.7225 79.0939Z" fill="#B48C71"/>
<path d="M40.5 41.1682C39.8001 41.1682 39.2344 40.6024 39.2344 39.9025V3.1665C39.2344 2.46661 39.8001 1.90088 40.5 1.90088C41.1999 1.90088 41.7656 2.46661 41.7656 3.1665V39.9025C41.7656 40.6037 41.1999 41.1682 40.5 41.1682Z" fill="#B48C71"/>
<path d="M49.3607 20.8828C48.6608 20.8828 48.095 20.3171 48.095 19.6172V8.22656C48.095 7.52667 48.6608 6.96094 49.3607 6.96094C50.0618 6.96094 50.6263 7.52667 50.6263 8.22656V19.6172C50.6263 20.3171 50.0618 20.8828 49.3607 20.8828Z" fill="#B48C71"/>
<path d="M49.3606 20.8826C49.0366 20.8826 48.7114 20.7586 48.4658 20.5118C47.9697 20.017 47.9697 19.2171 48.4658 18.7222L50.9971 16.191C51.4932 15.6961 52.2906 15.6961 52.7867 16.191C53.2828 16.6858 53.2828 17.4857 52.7867 17.9806L50.2554 20.5118C50.0099 20.7573 49.6846 20.8826 49.3606 20.8826Z" fill="#B48C71"/>
<path d="M49.3606 20.8826C49.0366 20.8826 48.7114 20.7586 48.4658 20.5118L45.9346 17.9806C45.4385 17.4857 45.4385 16.6858 45.9346 16.191C46.4307 15.6961 47.2281 15.6961 47.7242 16.191L50.2554 18.7222C50.7516 19.2171 50.7516 20.017 50.2554 20.5118C50.0099 20.7573 49.6846 20.8826 49.3606 20.8826Z" fill="#B48C71"/>
<path d="M31.6242 20.8828C30.9243 20.8828 30.3586 20.3171 30.3586 19.6172V8.22656C30.3586 7.52667 30.9243 6.96094 31.6242 6.96094C32.3241 6.96094 32.8898 7.52667 32.8898 8.22656V19.6172C32.8898 20.3171 32.3241 20.8828 31.6242 20.8828Z" fill="#B48C71"/>
<path d="M31.6242 20.8826C31.3002 20.8826 30.9762 20.7586 30.7294 20.5118C30.2345 20.017 30.2345 19.2171 30.7294 18.7222L33.2606 16.191C33.7555 15.6961 34.5554 15.6961 35.0502 16.191C35.5451 16.6858 35.5451 17.4857 35.0502 17.9806L32.519 20.5118C32.2722 20.7573 31.9482 20.8826 31.6242 20.8826Z" fill="#B48C71"/>
<path d="M31.6242 20.8826C31.3002 20.8826 30.9762 20.7586 30.7294 20.5118L28.1981 17.9806C27.7033 17.4857 27.7033 16.6858 28.1981 16.191C28.693 15.6961 29.4929 15.6961 29.9877 16.191L32.519 18.7222C33.0138 19.2171 33.0138 20.017 32.519 20.5118C32.2722 20.7573 31.9482 20.8826 31.6242 20.8826Z" fill="#B48C71"/>
</svg>
