<svg width="81" height="79" viewBox="0 0 81 79" fill="none" xmlns="http://www.w3.org/2000/svg">
<path d="M79.7344 59.0942H1.26562C0.565734 59.0942 0 58.5285 0 57.8286C0 57.1287 0.565734 56.563 1.26562 56.563H79.7344C80.4343 56.563 81 57.1287 81 57.8286C81 58.5285 80.4343 59.0942 79.7344 59.0942Z" fill="#B48C71"/>
<path d="M63.2762 54.0774H3.79565C3.09576 54.0774 2.53003 53.5116 2.53003 52.8117V38.8975C2.53003 38.1976 3.09576 37.6318 3.79565 37.6318H63.2762C63.9761 37.6318 64.5419 38.1976 64.5419 38.8975V52.8105C64.5419 53.5104 63.9761 54.0774 63.2762 54.0774ZM5.06128 51.5461H62.0106V40.1656H5.06128V51.5461Z" fill="#B48C71"/>
<path d="M63.2762 40.1632H3.79565C3.28434 40.1632 2.82112 39.8556 2.62621 39.3823C2.43004 38.9089 2.53888 38.3647 2.90085 38.0027L16.8278 24.072C17.0657 23.8341 17.3859 23.7012 17.7226 23.7012H77.2032C77.7145 23.7012 78.1777 24.0087 78.3726 24.4821C78.5688 24.9554 78.4599 25.4996 78.098 25.8616L64.171 39.7923C63.9344 40.0303 63.6129 40.1632 63.2762 40.1632ZM6.85087 37.6319H62.7523L74.1479 26.2312H18.2466L6.85087 37.6319Z" fill="#B48C71"/>
<path d="M63.2762 54.0774C62.9522 54.0774 62.6282 53.9534 62.3814 53.7066C61.8865 53.2117 61.8865 52.4118 62.3814 51.917L76.3096 37.99C76.8057 37.4952 77.6031 37.4952 78.0992 37.99C78.5953 38.4849 78.5953 39.2848 78.0992 39.7796L64.171 53.7066C63.9242 53.9534 63.6002 54.0774 63.2762 54.0774Z" fill="#B48C71"/>
<path d="M77.2043 40.1505C76.5045 40.1505 75.9387 39.5847 75.9387 38.8848V24.968C75.9387 24.2681 76.5045 23.7024 77.2043 23.7024C77.9055 23.7024 78.47 24.2681 78.47 24.968V38.8848C78.47 39.5822 77.9055 40.1505 77.2043 40.1505Z" fill="#B48C71"/>
<path d="M17.7225 40.1631C17.0226 40.1631 16.4569 39.5974 16.4569 38.8975V24.968C16.4569 24.2681 17.0226 23.7024 17.7225 23.7024C18.4224 23.7024 18.9882 24.2681 18.9882 24.968V38.9C18.9882 39.5986 18.4224 40.1631 17.7225 40.1631Z" fill="#B48C71"/>
<path d="M63.2762 78.099H3.79565C3.28434 78.099 2.82112 77.7902 2.62621 77.3181C2.43004 76.8435 2.53888 76.2993 2.90085 75.9386L16.8278 62.0066C17.0657 61.7674 17.3859 61.6357 17.7226 61.6357H77.2032C77.7145 61.6357 78.1777 61.942 78.3726 62.4166C78.5688 62.8887 78.4599 63.4329 78.098 63.7962L64.171 77.7282C63.9344 77.9661 63.6129 78.099 63.2762 78.099ZM6.85087 75.5677H62.7523L74.1479 64.167H18.2466L6.85087 75.5677Z" fill="#B48C71"/>
<path d="M17.7225 78.0939C17.0226 78.0939 16.4569 77.5282 16.4569 76.8283V62.9014C16.4569 62.2015 17.0226 61.6357 17.7225 61.6357C18.4224 61.6357 18.9882 62.2015 18.9882 62.9014V76.8283C18.9882 77.5282 18.4224 78.0939 17.7225 78.0939Z" fill="#B48C71"/>
<path d="M40.5 40.1682C39.8001 40.1682 39.2344 39.6024 39.2344 38.9025V2.1665C39.2344 1.46661 39.8001 0.900879 40.5 0.900879C41.1999 0.900879 41.7656 1.46661 41.7656 2.1665V38.9025C41.7656 39.6037 41.1999 40.1682 40.5 40.1682Z" fill="#B48C71"/>
<path d="M49.3606 19.8828C48.6607 19.8828 48.095 19.3171 48.095 18.6172V7.22656C48.095 6.52667 48.6607 5.96094 49.3606 5.96094C50.0618 5.96094 50.6262 6.52667 50.6262 7.22656V18.6172C50.6262 19.3171 50.0618 19.8828 49.3606 19.8828Z" fill="#B48C71"/>
<path d="M49.3606 19.8826C49.0366 19.8826 48.7114 19.7586 48.4658 19.5118C47.9697 19.017 47.9697 18.2171 48.4658 17.7222L50.9971 15.191C51.4932 14.6961 52.2906 14.6961 52.7867 15.191C53.2828 15.6858 53.2828 16.4857 52.7867 16.9806L50.2554 19.5118C50.0099 19.7573 49.6846 19.8826 49.3606 19.8826Z" fill="#B48C71"/>
<path d="M49.3606 19.8826C49.0366 19.8826 48.7114 19.7586 48.4658 19.5118L45.9346 16.9806C45.4385 16.4857 45.4385 15.6858 45.9346 15.191C46.4307 14.6961 47.2281 14.6961 47.7242 15.191L50.2554 17.7222C50.7516 18.2171 50.7516 19.017 50.2554 19.5118C50.0099 19.7573 49.6846 19.8826 49.3606 19.8826Z" fill="#B48C71"/>
<path d="M31.6241 19.8828C30.9243 19.8828 30.3585 19.3171 30.3585 18.6172V7.22656C30.3585 6.52667 30.9243 5.96094 31.6241 5.96094C32.324 5.96094 32.8898 6.52667 32.8898 7.22656V18.6172C32.8898 19.3171 32.324 19.8828 31.6241 19.8828Z" fill="#B48C71"/>
<path d="M31.6242 19.8826C31.3002 19.8826 30.9762 19.7586 30.7294 19.5118C30.2346 19.017 30.2346 18.2171 30.7294 17.7222L33.2607 15.191C33.7555 14.6961 34.5554 14.6961 35.0503 15.191C35.5451 15.6858 35.5451 16.4857 35.0503 16.9806L32.519 19.5118C32.2722 19.7573 31.9482 19.8826 31.6242 19.8826Z" fill="#B48C71"/>
<path d="M31.6242 19.8826C31.3002 19.8826 30.9762 19.7586 30.7294 19.5118L28.1982 16.9806C27.7033 16.4857 27.7033 15.6858 28.1982 15.191C28.693 14.6961 29.4929 14.6961 29.9878 15.191L32.519 17.7222C33.0139 18.2171 33.0139 19.017 32.519 19.5118C32.2722 19.7573 31.9482 19.8826 31.6242 19.8826Z" fill="#B48C71"/>
</svg>
