<svg width="66" height="66" viewBox="0 0 66 66" fill="none" xmlns="http://www.w3.org/2000/svg">
<g clip-path="url(#clip0)">
<path d="M57.7504 6.9187C55.618 6.9187 53.8833 8.65352 53.8833 10.7858C53.8833 12.918 55.6182 14.6528 57.7504 14.6528C59.8826 14.6528 61.6175 12.918 61.6175 10.7858C61.6175 8.65352 59.8826 6.9187 57.7504 6.9187ZM57.7504 12.0748C57.0396 12.0748 56.4613 11.4966 56.4613 10.7858C56.4613 10.075 57.0396 9.4967 57.7504 9.4967C58.4612 9.4967 59.0395 10.075 59.0395 10.7858C59.0395 11.4966 58.4611 12.0748 57.7504 12.0748Z" fill="#B48C71"/>
<path d="M10.7328 36.1321C8.60039 36.1321 6.86569 37.8669 6.86569 39.9991C6.86569 42.1314 8.60052 43.8662 10.7328 43.8662C12.8651 43.8662 14.5998 42.1314 14.5998 39.9991C14.5998 37.8669 12.8651 36.1321 10.7328 36.1321ZM10.7328 41.2883C10.022 41.2883 9.44369 40.7101 9.44369 39.9993C9.44369 39.2885 10.022 38.7102 10.7328 38.7102C11.4435 38.7102 12.0218 39.2885 12.0218 39.9993C12.0218 40.7101 11.4435 41.2883 10.7328 41.2883Z" fill="#B48C71"/>
<path d="M36.4992 55.821C36.2595 55.5812 35.9268 55.4446 35.5879 55.4446C35.2475 55.4446 34.9163 55.5812 34.6765 55.821C34.4367 56.0608 34.2988 56.3933 34.2988 56.7324C34.2988 57.0727 34.4367 57.404 34.6765 57.645C34.9163 57.8848 35.2488 58.0227 35.5879 58.0227C35.9269 58.0227 36.2595 57.8848 36.4992 57.645C36.739 57.404 36.8769 57.0727 36.8769 56.7324C36.8769 56.3933 36.739 56.0608 36.4992 55.821Z" fill="#B48C71"/>
<path d="M64.9869 18.9293C65.6099 18.3414 66 17.5089 66 16.5866V4.98523C66 3.20825 64.5543 1.7627 62.7775 1.7627H3.22395C1.44697 1.7627 0.00141266 3.20838 0.00141266 4.98523V16.5866C0.00141266 18.3635 1.4471 19.8091 3.22395 19.8091H27.5486L1.61274 34.7834C0.867277 35.2138 0.333991 35.9086 0.111241 36.7402C-0.111638 37.5716 0.00270172 38.4402 0.43312 39.1857L6.23378 49.2326C6.71383 50.0642 7.51112 50.6002 8.38536 50.7777C8.39361 50.78 8.40135 50.7834 8.40972 50.7856L29.8363 56.5268C29.9481 56.5567 30.0603 56.571 30.1708 56.571C30.7399 56.571 31.2608 56.1911 31.4151 55.6153C31.5995 54.9276 31.1914 54.2208 30.5036 54.0365L12.646 49.2515L26.4088 41.3054C26.336 41.9302 26.7286 42.5305 27.3542 42.6982C27.466 42.7281 27.5782 42.7425 27.6887 42.7425C28.2578 42.7425 28.7788 42.3626 28.9331 41.7867L29.331 40.3019L32.9647 41.2834L31.7686 45.7474C31.5843 46.4351 31.9924 47.1419 32.6801 47.3262C32.7919 47.3561 32.9041 47.3705 33.0146 47.3705C33.5837 47.3705 34.1047 46.9906 34.259 46.4147L35.4538 41.9557L39.0875 42.9372L38.6949 44.4025C38.5105 45.0901 38.9187 45.797 39.6064 45.9814C39.7181 46.0113 39.8304 46.0256 39.9409 46.0256C40.51 46.0256 41.0309 45.6458 41.1852 45.0699L41.5766 43.6096L45.2103 44.5911L44.0203 49.0323C43.8359 49.72 44.244 50.4268 44.9318 50.6112C45.0435 50.6411 45.1558 50.6554 45.2663 50.6554C45.8354 50.6554 46.3563 50.2755 46.5106 49.6997L47.6994 45.2635L51.3331 46.245L50.9471 47.6858C50.7627 48.3734 51.1708 49.0803 51.8586 49.2645C51.9703 49.2944 52.0825 49.3087 52.1929 49.3087C52.7621 49.3087 53.283 48.9288 53.4373 48.3529L53.8219 46.9172L57.4308 47.892L56.2473 52.3086C56.063 52.9963 56.4711 53.7031 57.1588 53.8875C57.2706 53.9174 57.3828 53.9317 57.4933 53.9317C58.0624 53.9317 58.5834 53.5518 58.7377 52.976L59.9197 48.5643L62.2088 49.1825C62.5513 49.2751 62.7551 49.629 62.6634 49.9715L59.6597 61.1814C59.5996 61.4057 59.4457 61.5228 59.3594 61.5727C59.273 61.6226 59.0946 61.6971 58.8703 61.6372L40.9742 56.842C40.2862 56.6577 39.5796 57.0658 39.3954 57.7535C39.211 58.4412 39.6191 59.148 40.3069 59.3323L58.2027 64.1274C58.481 64.202 58.7606 64.2376 59.0359 64.2375C60.4587 64.2375 61.7642 63.2867 62.1494 61.8486L65.1531 50.6389C65.6121 48.9258 64.5926 47.1562 62.8806 46.6938L31.6754 38.265L64.6253 19.2413C64.7688 19.1584 64.8893 19.0514 64.9869 18.9293ZM9.34687 48.1793C9.14565 48.2955 8.9541 48.2696 8.8578 48.2438C8.76151 48.218 8.58259 48.1447 8.46644 47.9435L2.66578 37.8965C2.48815 37.5886 2.59398 37.1938 2.90181 37.016L11.0947 32.286L11.8047 33.5157C12.0435 33.9293 12.4767 34.1604 12.9222 34.1604C13.1409 34.1604 13.3626 34.1047 13.5656 33.9875C14.1822 33.6316 14.3934 32.8432 14.0374 32.2267L13.3274 30.9969L16.587 29.1149L18.8439 33.0238C19.0827 33.4373 19.5159 33.6685 19.9614 33.6685C20.18 33.6685 20.4018 33.6128 20.6048 33.4956C21.2214 33.1397 21.4326 32.3513 21.0766 31.7347L18.8197 27.8258L22.0794 25.9438L22.7894 27.1735C23.0281 27.5871 23.4614 27.8182 23.9069 27.8182C24.1255 27.8182 24.3472 27.7625 24.5502 27.6453C25.1668 27.2894 25.3781 26.501 25.022 25.8845L24.312 24.6547L27.5717 22.7727L29.8277 26.6799C30.0664 27.0935 30.4997 27.3246 30.9452 27.3246C31.1638 27.3246 31.3855 27.2689 31.5885 27.1517C32.2051 26.7958 32.4164 26.0074 32.0603 25.3909L29.8045 21.4836L32.7049 19.809H33.184L33.7743 20.8313C34.013 21.2449 34.4463 21.476 34.8918 21.476C35.1104 21.476 35.3321 21.4203 35.5351 21.3031C36.0656 20.9968 36.2949 20.3706 36.1222 19.809H40.5072L40.8135 20.3395C41.0522 20.7531 41.4855 20.9842 41.931 20.9842C42.1496 20.9842 42.3713 20.9285 42.5743 20.8113C42.952 20.5932 43.1767 20.2127 43.2129 19.809H58.4856L9.34687 48.1793ZM63.4221 16.5866C63.4221 16.942 63.133 17.2311 62.7776 17.2311H3.22407C2.86868 17.2311 2.57954 16.942 2.57954 16.5866V4.98523C2.57954 4.62983 2.86868 4.3407 3.22407 4.3407H6.34348V8.85229C6.34348 9.56425 6.9206 10.1414 7.63255 10.1414C8.3445 10.1414 8.92161 9.56425 8.92161 8.85229V4.3407H12.6857V5.75867C12.6857 6.47062 13.2628 7.04773 13.9747 7.04773C14.6867 7.04773 15.2638 6.47062 15.2638 5.75867V4.3407H19.0278V8.85229C19.0278 9.56425 19.6049 10.1414 20.3168 10.1414C21.0288 10.1414 21.6059 9.56425 21.6059 8.85229V4.3407H25.3698V5.75867C25.3698 6.47062 25.9469 7.04773 26.6589 7.04773C27.3708 7.04773 27.9479 6.47062 27.9479 5.75867V4.3407H31.7119V8.85036C31.7119 9.56231 32.289 10.1394 33.001 10.1394C33.7129 10.1394 34.29 9.56231 34.29 8.85036V4.3407H38.054V5.75867C38.054 6.47062 38.6311 7.04773 39.343 7.04773C40.055 7.04773 40.6321 6.47062 40.6321 5.75867V4.3407H44.396V8.85229C44.396 9.56425 44.9731 10.1414 45.6851 10.1414C46.397 10.1414 46.9742 9.56425 46.9742 8.85229V4.3407H50.7381V5.75867C50.7381 6.47062 51.3152 7.04773 52.0272 7.04773C52.7391 7.04773 53.3162 6.47062 53.3162 5.75867V4.3407H62.7777C63.1331 4.3407 63.4222 4.62983 63.4222 4.98523V16.5866H63.4221Z" fill="#B48C71"/>
<path d="M8.5438 12.8176C8.30404 12.5779 7.97146 12.4399 7.63243 12.4399C7.29341 12.4399 6.96083 12.5779 6.72106 12.8176C6.4813 13.0574 6.34337 13.39 6.34337 13.729C6.34337 14.068 6.4813 14.4006 6.72106 14.6404C6.96083 14.8801 7.29341 15.0181 7.63243 15.0181C7.97146 15.0181 8.30404 14.8801 8.5438 14.6404C8.78357 14.4006 8.9215 14.068 8.9215 13.729C8.9215 13.39 8.78357 13.0574 8.5438 12.8176Z" fill="#B48C71"/>
</g>
<defs>
<clipPath id="clip0">
<rect width="66" height="66" fill="#B48C71"/>
</clipPath>
</defs>
</svg>
