<svg width="66" height="64" viewBox="0 0 66 64" fill="none" xmlns="http://www.w3.org/2000/svg">
<path d="M64.9869 17.9293C65.6099 17.3414 66 16.5089 66 15.5866V3.98523C66 2.20825 64.5543 0.762695 62.7775 0.762695H3.22396C1.44699 0.762695 0.00142792 2.20838 0.00142792 3.98523V15.5866C0.00142792 17.3635 1.44711 18.8091 3.22396 18.8091H27.5486L1.61276 33.7834C0.867293 34.2138 0.334007 34.9086 0.111256 35.7402C-0.111623 36.5716 0.00271698 37.4402 0.433136 38.1857L6.2338 48.2326C6.71385 49.0642 7.51113 49.6002 8.38538 49.7777C8.39363 49.78 8.40136 49.7834 8.40974 49.7856L29.8363 55.5268C29.9481 55.5567 30.0604 55.571 30.1708 55.571C30.74 55.571 31.2609 55.1911 31.4152 54.6153C31.5995 53.9276 31.1914 53.2208 30.5037 53.0365L12.646 48.2515L26.4088 40.3054C26.336 40.9302 26.7286 41.5305 27.3542 41.6982C27.466 41.7281 27.5783 41.7425 27.6887 41.7425C28.2579 41.7425 28.7788 41.3626 28.9331 40.7867L29.331 39.3019L32.9647 40.2834L31.7686 44.7474C31.5843 45.4351 31.9924 46.1419 32.6801 46.3262C32.7919 46.3561 32.9042 46.3705 33.0146 46.3705C33.5838 46.3705 34.1047 45.9906 34.259 45.4147L35.4538 40.9557L39.0875 41.9372L38.6949 43.4025C38.5106 44.0901 38.9187 44.797 39.6064 44.9814C39.7182 45.0113 39.8304 45.0256 39.9409 45.0256C40.51 45.0256 41.0309 44.6458 41.1852 44.0699L41.5766 42.6096L45.2103 43.5911L44.0203 48.0323C43.8359 48.72 44.2441 49.4268 44.9318 49.6112C45.0435 49.6411 45.1558 49.6554 45.2663 49.6554C45.8354 49.6554 46.3563 49.2755 46.5106 48.6997L47.6994 44.2635L51.3331 45.245L50.9471 46.6858C50.7627 47.3734 51.1709 48.0803 51.8586 48.2645C51.9703 48.2944 52.0825 48.3087 52.193 48.3087C52.7621 48.3087 53.283 47.9288 53.4373 47.3529L53.8219 45.9172L57.4308 46.892L56.2473 51.3086C56.063 51.9963 56.4711 52.7031 57.1588 52.8875C57.2706 52.9174 57.3829 52.9317 57.4933 52.9317C58.0625 52.9317 58.5834 52.5518 58.7377 51.976L59.9197 47.5643L62.2089 48.1825C62.5514 48.2751 62.7552 48.629 62.6634 48.9715L59.6597 60.1814C59.5997 60.4057 59.4457 60.5228 59.3594 60.5727C59.273 60.6226 59.0946 60.6971 58.8703 60.6372L40.9742 55.842C40.2862 55.6577 39.5796 56.0658 39.3954 56.7535C39.211 57.4412 39.6192 58.148 40.3069 58.3323L58.2027 63.1274C58.481 63.202 58.7606 63.2376 59.036 63.2375C60.4587 63.2375 61.7643 62.2867 62.1494 60.8486L65.1531 49.6389C65.6121 47.9258 64.5926 46.1562 62.8806 45.6938L31.6754 37.265L64.6253 18.2413C64.7688 18.1584 64.8893 18.0514 64.9869 17.9293ZM9.34689 47.1793C9.14567 47.2955 8.95411 47.2696 8.85782 47.2438C8.76152 47.218 8.5826 47.1447 8.46646 46.9435L2.6658 36.8965C2.48816 36.5886 2.59399 36.1938 2.90182 36.016L11.0947 31.286L11.8047 32.5157C12.0435 32.9293 12.4767 33.1604 12.9222 33.1604C13.1409 33.1604 13.3626 33.1047 13.5656 32.9875C14.1822 32.6316 14.3934 31.8432 14.0374 31.2267L13.3274 29.9969L16.5871 28.1149L18.8439 32.0238C19.0827 32.4373 19.5159 32.6685 19.9614 32.6685C20.1801 32.6685 20.4018 32.6128 20.6048 32.4956C21.2214 32.1397 21.4326 31.3513 21.0766 30.7347L18.8197 26.8258L22.0794 24.9438L22.7894 26.1735C23.0281 26.5871 23.4614 26.8182 23.9069 26.8182C24.1255 26.8182 24.3472 26.7625 24.5502 26.6453C25.1668 26.2894 25.3781 25.501 25.022 24.8845L24.312 23.6547L27.5717 21.7727L29.8277 25.6799C30.0664 26.0935 30.4997 26.3246 30.9452 26.3246C31.1638 26.3246 31.3855 26.2689 31.5885 26.1517C32.2051 25.7958 32.4164 25.0074 32.0603 24.3909L29.8045 20.4836L32.7049 18.809H33.184L33.7743 19.8313C34.013 20.2449 34.4463 20.476 34.8918 20.476C35.1104 20.476 35.3321 20.4203 35.5351 20.3031C36.0656 19.9968 36.2949 19.3706 36.1222 18.809H40.5072L40.8135 19.3395C41.0522 19.7531 41.4855 19.9842 41.931 19.9842C42.1496 19.9842 42.3713 19.9285 42.5743 19.8113C42.952 19.5932 43.1767 19.2127 43.2129 18.809H58.4857L9.34689 47.1793ZM63.4221 15.5866C63.4221 15.942 63.133 16.2311 62.7776 16.2311H3.22409C2.86869 16.2311 2.57956 15.942 2.57956 15.5866V3.98523C2.57956 3.62983 2.86869 3.3407 3.22409 3.3407H6.3435V7.85229C6.3435 8.56425 6.92061 9.14136 7.63256 9.14136C8.34451 9.14136 8.92163 8.56425 8.92163 7.85229V3.3407H12.6857V4.75867C12.6857 5.47062 13.2628 6.04773 13.9748 6.04773C14.6867 6.04773 15.2638 5.47062 15.2638 4.75867V3.3407H19.0278V7.85229C19.0278 8.56425 19.6049 9.14136 20.3168 9.14136C21.0288 9.14136 21.6059 8.56425 21.6059 7.85229V3.3407H25.3698V4.75867C25.3698 5.47062 25.9469 6.04773 26.6589 6.04773C27.3708 6.04773 27.948 5.47062 27.948 4.75867V3.3407H31.7119V7.85036C31.7119 8.56231 32.289 9.13943 33.001 9.13943C33.7129 9.13943 34.29 8.56231 34.29 7.85036V3.3407H38.054V4.75867C38.054 5.47062 38.6311 6.04773 39.343 6.04773C40.055 6.04773 40.6321 5.47062 40.6321 4.75867V3.3407H44.396V7.85229C44.396 8.56425 44.9732 9.14136 45.6851 9.14136C46.3971 9.14136 46.9742 8.56425 46.9742 7.85229V3.3407H50.7381V4.75867C50.7381 5.47062 51.3152 6.04773 52.0272 6.04773C52.7391 6.04773 53.3162 5.47062 53.3162 4.75867V3.3407H62.7777C63.1331 3.3407 63.4223 3.62983 63.4223 3.98523V15.5866H63.4221Z" fill="#B48C71"/>
</svg>
