<svg width="26" height="26" viewBox="0 0 26 26" fill="none" xmlns="http://www.w3.org/2000/svg">
<g clip-path="url(#clip0)">
<path d="M13.5669 2.00404C12.6236 1.99881 11.8091 2.31325 11.2085 2.91381C11.1992 2.92316 11.1898 2.93258 11.1806 2.94208C10.6157 3.52185 10.2973 4.32669 10.2842 5.20823L10.284 5.21653L10.381 16.9274C10.3871 18.0956 11.2393 18.9481 12.4074 18.9546C12.9739 18.9577 13.49 18.7553 13.8608 18.3844L13.861 18.3843C14.2362 18.0089 14.4411 17.4904 14.4378 16.9208L14.351 8.80689C14.3468 8.41041 14.022 8.09245 13.6255 8.09669C13.229 8.1009 12.911 8.42578 12.9152 8.82225L13.002 16.9327C13.003 17.1122 12.9474 17.2672 12.8455 17.3691C12.7452 17.4695 12.6005 17.5198 12.4153 17.5189C11.8779 17.5159 11.8177 17.0991 11.8168 16.9178L11.7199 5.22186C11.7395 4.13295 12.4606 3.43382 13.559 3.43989C14.8609 3.44707 15.4486 4.38714 15.4535 5.31561C15.4555 5.71208 15.7786 6.0318 16.1751 6.0298C16.5717 6.02769 16.8913 5.70454 16.8893 5.30812C16.8846 4.41233 16.5641 3.58807 15.9867 2.98732C15.3824 2.35852 14.5231 2.00934 13.5669 2.00404Z" fill="#B48C71"/>
<path d="M16.2135 7.83949C15.8171 7.84587 15.5008 8.17244 15.5072 8.5689L15.6716 18.7546C15.676 19.6662 15.3544 20.4924 14.7657 21.0812L14.7654 21.0816C14.1768 21.6701 13.3684 21.9785 12.4278 21.9733C10.2259 21.9612 9.23141 20.3554 9.2224 18.7686L9.22351 8.76369C9.22357 8.36719 8.90217 8.04574 8.50567 8.04569C8.10919 8.04562 7.78774 8.36701 7.78767 8.76354L7.78655 18.7704L7.78657 18.7742C7.79317 20.0358 8.23579 21.1923 9.0328 22.0308C9.88271 22.925 11.054 23.4016 12.4198 23.4091C13.7337 23.4164 14.9272 22.9504 15.7807 22.0969L15.7811 22.0964C16.6439 21.2334 17.1149 20.0424 17.1074 18.7427L16.9429 8.54574C16.9365 8.14929 16.6099 7.83307 16.2135 7.83949Z" fill="#B48C71"/>
</g>
<defs>
<clipPath id="clip0">
<rect width="18.3849" height="18.3849" fill="white" transform="translate(0 13) rotate(-45)"/>
</clipPath>
</defs>
</svg>
