<svg width="25" height="24" viewBox="0 0 25 24" fill="none" xmlns="http://www.w3.org/2000/svg">
<path fill-rule="evenodd" clip-rule="evenodd" d="M17.2139 3.00005L7.7669 3C4.4653 3 2.08337 5.56151 2.08337 8.85897V15.141C2.08337 18.4385 4.4653 21 7.7669 21H17.2051C18.7909 20.9829 20.2919 20.3421 21.3673 19.2266C22.4427 18.111 22.9986 16.6183 22.9056 15.0959L22.9069 8.85897C22.9986 7.38171 22.4427 5.88895 21.3673 4.77344C20.2919 3.65794 18.7909 3.01705 17.2139 3.00005ZM7.7669 4.52843L17.1963 4.52838C18.341 4.54072 19.4305 5.00592 20.2111 5.81562C20.9917 6.62533 21.3952 7.70887 21.3276 8.81389L21.3263 15.141C21.3952 16.2911 20.9917 17.3747 20.2111 18.1844C19.4305 18.9941 18.341 19.4593 17.1963 19.4716L7.7669 19.4716C5.37795 19.4716 3.66405 17.6284 3.66405 15.141V8.85897C3.66405 6.37155 5.37795 4.52843 7.7669 4.52843ZM18.7751 8.63837C18.5023 8.30886 18.005 8.25555 17.6642 8.5193L13.3941 11.8242L13.2717 11.9068C12.7683 12.2095 12.1071 12.1816 11.6249 11.8181L7.32356 8.51731L7.22676 8.4536C6.89314 8.26727 6.45986 8.34031 6.21319 8.64086C5.94185 8.97146 5.99905 9.45216 6.34096 9.71453L10.6477 13.0195L10.8157 13.1375C11.8991 13.8459 13.3348 13.8067 14.3738 13.0236L18.652 9.71255L18.7378 9.63551C19 9.36261 19.0231 8.93792 18.7751 8.63837Z" fill="#B48C71"/>
</svg>
