<svg width="24" height="24" viewBox="0 0 24 24" fill="none" xmlns="http://www.w3.org/2000/svg">
<g clip-path="url(#clip0)">
<path d="M21.2501 24H2.75006C1.23306 24 5.8651e-05 22.767 5.8651e-05 21.25V2.75C5.8651e-05 1.233 1.23306 0 2.75006 0H21.2501C22.7671 0 24.0001 1.233 24.0001 2.75V21.25C24.0001 22.767 22.7671 24 21.2501 24ZM2.75006 1.5C2.06106 1.5 1.50006 2.061 1.50006 2.75V21.25C1.50006 21.939 2.06106 22.5 2.75006 22.5H21.2501C21.9391 22.5 22.5001 21.939 22.5001 21.25V2.75C22.5001 2.061 21.9391 1.5 21.2501 1.5H2.75006Z" fill="url(#paint0_linear)"/>
<path d="M12.0001 26.1818C11.5861 26.1818 11.2501 25.8458 11.2501 25.4318V2.93182C11.2501 2.51782 11.5861 2.18182 12.0001 2.18182C12.4141 2.18182 12.7501 2.51782 12.7501 2.93182V25.4318C12.7501 25.8458 12.4141 26.1818 12.0001 26.1818Z" fill="url(#paint1_linear)"/>
<path d="M19.9773 12.75H-2.5227C-2.93671 12.75 -3.27271 12.414 -3.27271 12C-3.27271 11.586 -2.93671 11.25 -2.5227 11.25H19.9773C20.3913 11.25 20.7273 11.586 20.7273 12C20.7273 12.414 20.3913 12.75 19.9773 12.75Z" fill="url(#paint2_linear)"/>
<path d="M6.00005 9.00005C5.58605 9.00005 5.25005 8.66405 5.25005 8.25005V4.75005C5.25005 4.33605 5.58605 4.00005 6.00005 4.00005C6.41405 4.00005 6.75005 4.33605 6.75005 4.75005V8.25005C6.75005 8.66405 6.41405 9.00005 6.00005 9.00005Z" fill="url(#paint3_linear)"/>
<path d="M7.75009 7.24994H4.25008C3.83608 7.24994 3.50009 6.91394 3.50009 6.49994C3.50009 6.08594 3.83608 5.74994 4.25008 5.74994H7.75009C8.16409 5.74994 8.50009 6.08594 8.50009 6.49994C8.50009 6.91394 8.16409 7.24994 7.75009 7.24994Z" fill="url(#paint4_linear)"/>
<path d="M4.75001 19.9998C4.55801 19.9998 4.36601 19.9268 4.22001 19.7798C3.92701 19.4868 3.92701 19.0118 4.22001 18.7188L6.72001 16.2188C7.01301 15.9258 7.48802 15.9258 7.78102 16.2188C8.07402 16.5118 8.07402 16.9868 7.78102 17.2798L5.28102 19.7798C5.13402 19.9268 4.94201 19.9998 4.75001 19.9998Z" fill="url(#paint5_linear)"/>
<path d="M7.25002 19.9998C7.05801 19.9998 6.86601 19.9268 6.72001 19.7798L4.22001 17.2798C3.92701 16.9868 3.92701 16.5118 4.22001 16.2188C4.51301 15.9258 4.98802 15.9258 5.28102 16.2188L7.78102 18.7188C8.07402 19.0118 8.07402 19.4868 7.78102 19.7798C7.63402 19.9268 7.44201 19.9998 7.25002 19.9998Z" fill="url(#paint6_linear)"/>
<path d="M20.2501 7.00005H15.7501C15.3361 7.00005 15.0001 6.66405 15.0001 6.25005C15.0001 5.83605 15.3361 5.50005 15.7501 5.50005H20.2501C20.6641 5.50005 21.0001 5.83605 21.0001 6.25005C21.0001 6.66405 20.6641 7.00005 20.2501 7.00005Z" fill="url(#paint7_linear)"/>
<path d="M20.2501 19.9999H15.7501C15.3361 19.9999 15.0001 19.6639 15.0001 19.2499C15.0001 18.8359 15.3361 18.4999 15.7501 18.4999H20.2501C20.6641 18.4999 21.0001 18.8359 21.0001 19.2499C21.0001 19.6639 20.6641 19.9999 20.2501 19.9999Z" fill="url(#paint8_linear)"/>
<path d="M20.2501 16.9999H15.7501C15.3361 16.9999 15.0001 16.6639 15.0001 16.2499C15.0001 15.8359 15.3361 15.4999 15.7501 15.4999H20.2501C20.6641 15.4999 21.0001 15.8359 21.0001 16.2499C21.0001 16.6639 20.6641 16.9999 20.2501 16.9999Z" fill="url(#paint9_linear)"/>
</g>
<defs>
<linearGradient id="paint0_linear" x1="-0.478727" y1="0.623377" x2="12.1292" y2="29.862" gradientUnits="userSpaceOnUse">
<stop stop-color="white"/>
</linearGradient>
<linearGradient id="paint1_linear" x1="-0.478727" y1="0.623377" x2="12.1292" y2="29.862" gradientUnits="userSpaceOnUse">
<stop stop-color="white"/>
</linearGradient>
<linearGradient id="paint2_linear" x1="-0.478727" y1="0.623377" x2="12.1292" y2="29.862" gradientUnits="userSpaceOnUse">
<stop stop-color="white"/>
</linearGradient>
<linearGradient id="paint3_linear" x1="-0.478727" y1="0.623377" x2="12.1292" y2="29.862" gradientUnits="userSpaceOnUse">
<stop stop-color="white"/>
</linearGradient>
<linearGradient id="paint4_linear" x1="-0.478727" y1="0.623377" x2="12.1292" y2="29.862" gradientUnits="userSpaceOnUse">
<stop stop-color="white"/>
</linearGradient>
<linearGradient id="paint5_linear" x1="-0.478727" y1="0.623377" x2="12.1292" y2="29.862" gradientUnits="userSpaceOnUse">
<stop stop-color="white"/>
</linearGradient>
<linearGradient id="paint6_linear" x1="-0.478727" y1="0.623377" x2="12.1292" y2="29.862" gradientUnits="userSpaceOnUse">
<stop stop-color="white"/>
</linearGradient>
<linearGradient id="paint7_linear" x1="-0.478727" y1="0.623377" x2="12.1292" y2="29.862" gradientUnits="userSpaceOnUse">
<stop stop-color="white"/>
</linearGradient>
<linearGradient id="paint8_linear" x1="-0.478727" y1="0.623377" x2="12.1292" y2="29.862" gradientUnits="userSpaceOnUse">
<stop stop-color="white"/>
</linearGradient>
<linearGradient id="paint9_linear" x1="-0.478727" y1="0.623377" x2="12.1292" y2="29.862" gradientUnits="userSpaceOnUse">
<stop stop-color="white"/>
</linearGradient>
<clipPath id="clip0">
<rect width="24" height="24" fill="white"/>
</clipPath>
</defs>
</svg>
