<svg width="90" height="83" viewBox="0 0 90 83" fill="none" xmlns="http://www.w3.org/2000/svg">
<path d="M89.5 62C89.5 67.4893 84.7124 72.6143 76.6084 76.3962C68.5449 80.1591 57.3702 82.5 45 82.5C32.6298 82.5 21.4551 80.1591 13.3916 76.3962C5.28758 72.6143 0.5 67.4893 0.5 62C0.5 56.5107 5.28758 51.3857 13.3916 47.6038C21.4551 43.8409 32.6298 41.5 45 41.5C57.3702 41.5 68.5449 43.8409 76.6084 47.6038C84.7124 51.3857 89.5 56.5107 89.5 62Z" fill="#333333" fill-opacity="0.3" stroke="#333333"/>
<g clip-path="url(#clip0)">
<path d="M45 0C34.6625 0 26.25 8.47083 26.25 18.8854C26.25 33.6833 43.2375 48.9625 43.9604 49.6042C44.2583 49.8687 44.6292 50 45 50C45.3708 50 45.7417 49.8688 46.0396 49.6063C46.7625 48.9625 63.75 33.6833 63.75 18.8854C63.75 8.47083 55.3375 0 45 0ZM45 29.1667C39.2562 29.1667 34.5833 24.4937 34.5833 18.75C34.5833 13.0062 39.2562 8.33333 45 8.33333C50.7437 8.33333 55.4167 13.0062 55.4167 18.75C55.4167 24.4937 50.7437 29.1667 45 29.1667Z" fill="#333333"/>
</g>
<defs>
<clipPath id="clip0">
<rect width="50" height="50" fill="white" transform="translate(20)"/>
</clipPath>
</defs>
</svg>
