<svg width="23" height="23" viewBox="0 0 23 23" fill="none" xmlns="http://www.w3.org/2000/svg">
<path d="M2.59421 23H11.0314C11.4281 23 11.7501 22.678 11.7501 22.2812C11.7501 22.1279 11.7405 15.7262 11.7396 15.5729C11.7396 15.1762 11.4176 14.8542 11.0208 14.8542H8.86458V12.4583H11.0208C11.4176 12.4583 11.7396 12.1363 11.7396 11.7396V9.03996C11.7396 6.69779 13.6457 4.79167 15.9879 4.79167H17.9688V7.1875H16.7708C15.846 7.1875 15.0938 7.93979 15.0938 8.86458V11.7396C15.0938 12.1363 15.4157 12.4583 15.8125 12.4583H18.7258L18.1269 14.8542H15.8125C15.4157 14.8542 15.0938 15.1762 15.0938 15.5729V22.2812C15.0938 22.678 15.4157 23 15.8125 23H20.4058C21.8366 23 23 21.8366 23 20.4058V2.59421C23 1.16342 21.8366 0 20.4058 0H2.59421C1.16342 0 0 1.16342 0 2.59421V20.4067C0 21.8366 1.16342 23 2.59421 23ZM1.4375 2.59421C1.4375 1.95596 1.95596 1.4375 2.59421 1.4375H20.4067C21.045 1.4375 21.5635 1.95596 21.5635 2.59421V20.4067C21.5635 21.045 21.045 21.5635 20.4067 21.5635H16.5312V16.2917H18.6875C19.0172 16.2917 19.3047 16.0674 19.3852 15.7473L20.3435 11.914C20.4566 11.4607 20.1145 11.0208 19.6458 11.0208H16.5312V8.86458C16.5312 8.73425 16.6405 8.625 16.7708 8.625H18.6875C19.0842 8.625 19.4062 8.303 19.4062 7.90625V4.07292C19.4062 3.67617 19.0842 3.35417 18.6875 3.35417H15.9879C12.8532 3.35417 10.3021 5.90525 10.3021 9.03996V11.0208H8.14583C7.74908 11.0208 7.42708 11.3428 7.42708 11.7396V15.5729C7.42708 15.9697 7.74908 16.2917 8.14583 16.2917H10.3021V21.5625H2.59421C1.95596 21.5625 1.4375 21.044 1.4375 20.4058V2.59421Z" fill="#555C6C"/>
</svg>
