<svg width="55" height="55" viewBox="0 0 55 55" fill="none" xmlns="http://www.w3.org/2000/svg">
<mask id="mask0" mask-type="alpha" maskUnits="userSpaceOnUse" x="0" y="0" width="55" height="55">
<circle cx="27.5" cy="27.5" r="27.5" fill="#C4C4C4"/>
</mask>
<g mask="url(#mask0)">
<path d="M24.8995 12.3642L26.7771 17.997C26.9353 18.4715 27.3794 18.7916 27.8796 18.7916C28.2205 18.7916 28.5442 18.6419 28.765 18.3821L33.877 12.3681C34.7405 11.3522 33.9484 9.7988 32.619 9.90107L26.2075 10.3943C25.2345 10.4691 24.5909 11.4384 24.8995 12.3642Z" fill="#341B07"/>
<path d="M45.5861 3.52615L34.0095 15.8043C33.1073 16.7613 33.7857 18.3334 35.1009 18.3334H56.8508C58.1206 18.3334 58.816 16.8541 58.0058 15.8763L47.8325 3.59814C47.2574 2.90408 46.2044 2.87033 45.5861 3.52615Z" fill="#341B07"/>
<path d="M14.4068 -0.587138L23.3866 7.39494C23.6733 7.64975 24.0466 7.78507 24.43 7.77309L37.945 7.35075C38.3029 7.33956 38.645 7.20068 38.9095 6.95921L48.0547 -1.39076C48.5563 -1.84872 48.4948 -2.65591 47.9297 -3.03267C47.758 -3.14716 47.5562 -3.20825 47.3498 -3.20825H15.4033C14.024 -3.20825 13.3759 -1.50348 14.4068 -0.587138Z" fill="#341B07"/>
<path d="M21.3051 30.9174L26.6076 21.8275C26.8764 21.3667 27.3697 21.0833 27.9032 21.0833H67.0046C68.1733 21.0833 68.893 22.3607 68.2876 23.3604L50.8077 52.2225C50.3513 52.9761 49.3469 53.1759 48.6368 52.6545L21.7129 32.8822C21.0944 32.428 20.9184 31.5803 21.3051 30.9174Z" fill="#341B07"/>
<path d="M27.0061 40.3334H24.3544C24.0171 40.3334 23.6897 40.4471 23.4249 40.6561L8.1613 52.7063C7.32694 53.365 7.42359 54.6586 8.34655 55.186L21.9135 62.9385C22.2623 63.1378 22.6764 63.1889 23.0631 63.0804L45.6324 56.7451C46.8339 56.4079 47.1221 54.8364 46.1186 54.0947L27.8977 40.6271C27.6396 40.4363 27.3271 40.3334 27.0061 40.3334Z" fill="#341B07"/>
<path d="M18.5294 34.375H15.3387C14.3249 34.375 13.603 35.3599 13.9083 36.3267L15.4697 41.2709C15.7616 42.1953 16.8405 42.6042 17.6718 42.1055L21.4452 39.8414C22.2241 39.3741 22.4122 38.3273 21.8448 37.6181L19.7007 34.938C19.416 34.5821 18.9851 34.375 18.5294 34.375Z" fill="#341B07"/>
<path d="M-2.72211 33.9167H9.0166C9.65508 33.9167 10.2236 34.3209 10.4333 34.9239L13.387 43.4156C13.6027 44.0358 13.3899 44.7243 12.8618 45.1146L4.70405 51.1442C3.93483 51.7128 2.83712 51.4258 2.44459 50.5535L-4.09 36.0322C-4.53667 35.0396 -3.8106 33.9167 -2.72211 33.9167Z" fill="#341B07"/>
<path d="M7.61006 -2.23157L19.565 7.54972C20.4509 8.27459 20.2311 9.68474 19.1666 10.1056L2.09874 16.8534C1.92317 16.9228 1.73606 16.9584 1.54726 16.9584H-6.11225C-7.35828 16.9584 -8.06106 15.5272 -7.29918 14.5412L5.47327 -1.98781C5.98981 -2.65627 6.95623 -2.76652 7.61006 -2.23157Z" fill="#341B07"/>
<path d="M18.2988 30.8334L24.3969 19.4503C24.6191 19.0355 24.6338 18.5406 24.4366 18.1134L22.5361 13.9957C22.2271 13.3262 21.4773 12.9805 20.7675 13.1805L-9.33674 21.6605C-10.0346 21.8571 -10.492 22.5248 -10.4233 23.2466L-9.75464 30.2673C-9.68132 31.0371 -9.03473 31.625 -8.2614 31.625H16.9766C17.5295 31.625 18.0377 31.3208 18.2988 30.8334Z" fill="#341B07"/>
</g>
</svg>
