<svg width="29" height="29" viewBox="0 0 29 29" fill="none" xmlns="http://www.w3.org/2000/svg">
<path d="M20.576 0H8.42405C3.77901 0 0 3.77901 0 8.42405V20.576C0 25.221 3.77901 29 8.42405 29H20.576C25.221 29 29 25.221 29 20.576V8.42405C29 3.77901 25.221 0 20.576 0ZM26.7344 20.576C26.7344 23.9717 23.9717 26.7344 20.576 26.7344H8.42405C5.02827 26.7344 2.26562 23.9717 2.26562 20.576V8.42405C2.26562 5.02827 5.02827 2.26562 8.42405 2.26562H20.576C23.9717 2.26562 26.7344 5.02827 26.7344 8.42405V20.576Z" fill="#B48C71"/>
<path d="M14.5 6.68359C10.19 6.68359 6.68359 10.19 6.68359 14.5C6.68359 18.81 10.19 22.3164 14.5 22.3164C18.81 22.3164 22.3164 18.81 22.3164 14.5C22.3164 10.19 18.81 6.68359 14.5 6.68359ZM14.5 20.0508C11.4393 20.0508 8.94922 17.5607 8.94922 14.5C8.94922 11.4393 11.4393 8.94922 14.5 8.94922C17.5607 8.94922 20.0508 11.4393 20.0508 14.5C20.0508 17.5607 17.5607 20.0508 14.5 20.0508Z" fill="#B48C71"/>
<path d="M22.4297 7.70312C23.0553 7.70312 23.5625 7.19595 23.5625 6.57031C23.5625 5.94468 23.0553 5.4375 22.4297 5.4375C21.8041 5.4375 21.2969 5.94468 21.2969 6.57031C21.2969 7.19595 21.8041 7.70312 22.4297 7.70312Z" fill="#B48C71"/>
</svg>
